<?xml version="1.0" standalone="no"?>
<!DOCTYPE svg PUBLIC "-//W3C//DTD SVG 20010904//EN"
 "http://www.w3.org/TR/2001/REC-SVG-20010904/DTD/svg10.dtd">
<svg version="1.0" xmlns="http://www.w3.org/2000/svg"
 width="200.000000pt" height="200.000000pt" viewBox="0 0 200.000000 200.000000"
 preserveAspectRatio="xMidYMid meet">
<metadata>
Created by potrace 1.15, written by Peter Selinger 2001-2017
</metadata>
<g transform="translate(0.000000,200.000000) scale(0.100000,-0.100000)"
fill="#ffffff" stroke="none">
<path d="M0 1000 l0 -1000 1000 0 1000 0 0 1000 0 1000 -1000 0 -1000 0 0
-1000z m1085 381 l50 -51 -395 -395 -395 -395 -130 0 -130 0 460 454 c345 340
464 452 475 446 8 -5 37 -31 65 -59z m480 -481 l359 -360 -131 0 -131 0 -296
302 -296 303 57 57 c32 32 62 58 68 58 5 0 172 -162 370 -360z m-127 -256 c50
-48 92 -91 92 -95 0 -5 -66 -9 -148 -9 l-147 0 -110 110 c-60 61 -114 110
-120 110 -6 0 -60 -49 -120 -110 l-110 -110 -147 0 c-82 0 -148 3 -148 7 0 3
118 122 263 264 l262 257 170 -168 c94 -93 212 -208 263 -256z"/>
</g>
</svg>
