<?xml version="1.0" standalone="no"?>
<!DOCTYPE svg PUBLIC "-//W3C//DTD SVG 20010904//EN"
 "http://www.w3.org/TR/2001/REC-SVG-20010904/DTD/svg10.dtd">
<svg version="1.0" xmlns="http://www.w3.org/2000/svg"
 width="700.000000pt" height="700.000000pt" viewBox="0 0 700.000000 700.000000"
 preserveAspectRatio="xMidYMid meet">
<metadata>
Created by potrace 1.11, written by Peter Selinger 2001-2013
</metadata>
<g transform="translate(0.000000,700.000000) scale(0.100000,-0.100000)"
fill="#000000" stroke="none">
<path d="M0 3500 l0 -3500 3500 0 3500 0 0 3500 0 3500 -3500 0 -3500 0 0
-3500z m3627 1492 c84 -71 345 -333 339 -341 -4 -3 -626 -626 -1383 -1383
l-1377 -1378 -455 0 -455 0 191 187 c105 104 460 453 788 777 328 324 651 643
718 709 67 65 233 228 368 361 231 226 615 598 739 716 30 28 84 80 120 113
147 140 322 287 340 287 5 0 35 -22 67 -48z m778 -788 c223 -212 621 -606
1503 -1487 l822 -822 -457 -3 -456 -2 -140 142 c-76 79 -314 321 -527 538
-213 217 -420 429 -460 470 -40 41 -226 232 -414 423 -455 465 -526 539 -526
546 0 18 382 378 415 391 23 9 31 2 240 -196z m-561 -789 c489 -482 788 -775
1002 -982 415 -400 511 -500 498 -513 -18 -17 -113 -21 -559 -26 l-460 -6
-285 284 c-307 305 -411 404 -477 456 l-43 34 -32 -23 c-32 -22 -46 -34 -133
-114 -22 -20 -176 -171 -342 -337 l-302 -300 -478 5 c-430 5 -539 10 -552 23
-5 5 730 737 1349 1344 215 212 413 406 439 431 l46 47 43 -42 c24 -22 152
-149 286 -281z"/>
</g>
</svg>
