<?xml version="1.0" standalone="no"?>
<!DOCTYPE svg PUBLIC "-//W3C//DTD SVG 20010904//EN"
 "http://www.w3.org/TR/2001/REC-SVG-20010904/DTD/svg10.dtd">
<svg version="1.0" xmlns="http://www.w3.org/2000/svg"
 width="1000.000000pt" height="1000.000000pt" viewBox="0 0 1000.000000 1000.000000"
 preserveAspectRatio="xMidYMid meet">
<metadata>
Created by potrace 1.11, written by Peter Selinger 2001-2013
</metadata>
<g transform="translate(0.000000,1000.000000) scale(0.100000,-0.100000)"
fill="#000000" stroke="none">
<path d="M0 5000 l0 -5000 5000 0 5000 0 0 5000 0 5000 -5000 0 -5000 0 0
-5000z m5007 2498 c-3 -8 -6 -5 -6 6 -1 11 2 17 5 13 3 -3 4 -12 1 -19z m47
-52 c74 -61 88 -75 344 -328 139 -138 252 -257 250 -264 -2 -8 -932 -943
-2068 -2079 l-2064 -2065 -646 0 c-356 0 -650 3 -653 6 -8 8 4599 4616 4701
4702 40 34 78 62 84 62 6 0 29 -15 52 -34z m1768 -1753 c454 -456 862 -868
906 -918 44 -49 523 -532 1064 -1073 541 -540 982 -985 979 -987 -9 -10 -1319
-5 -1323 5 -1 5 -404 411 -894 902 -490 491 -922 929 -960 973 -39 44 -339
349 -667 677 l-598 597 323 324 c178 179 328 325 334 326 5 0 382 -371 836
-826z m-1758 -265 c72 -61 2716 -2699 2716 -2710 0 -5 -361 -7 -802 -6 l-803
1 -580 587 c-350 354 -588 587 -600 588 -14 1 -194 -172 -609 -588 l-589 -590
-792 0 c-435 0 -794 2 -797 5 -6 7 2584 2598 2691 2692 46 40 88 73 93 73 6 0
38 -23 72 -52z"/>
</g>
</svg>
