<svg xmlns="http://www.w3.org/2000/svg" width="308.691" height="52.252" viewBox="0 0 308.691 52.252">
  <g id="Group_7" data-name="Group 7" transform="translate(90 -2778.873)" opacity="0.53">
    <path id="Path_7" data-name="Path 7" d="M33.346,5.873h4.6L4.6,58.125H0Z" transform="translate(107.88 2773)" fill="#b7b7b7"/>
    <path id="Path_9" data-name="Path 9" d="M33.346,5.873h4.6L4.6,58.125H0Z" transform="translate(128.588 2773)" fill="#b7b7b7"/>
    <path id="Path_8" data-name="Path 8" d="M33.346,5.873h4.6L4.6,58.125H0Z" transform="translate(118.618 2773)" fill="#b7b7b7"/>
    <path id="Path_10" data-name="Path 10" d="M33.346,5.873h4.6L4.6,58.125H0Z" transform="translate(139.326 2773)" fill="#b7b7b7"/>
    <path id="Path_11" data-name="Path 11" d="M33.346,5.873h4.6L4.6,58.125H0Z" transform="translate(149.297 2773)" fill="#b7b7b7"/>
    <path id="Path_12" data-name="Path 12" d="M33.346,5.873h4.6L4.6,58.125H0Z" transform="translate(170.005 2773)" fill="#b7b7b7"/>
    <path id="Path_13" data-name="Path 13" d="M33.346,5.873h4.6L4.6,58.125H0Z" transform="translate(160.034 2773)" fill="#b7b7b7"/>
    <path id="Path_14" data-name="Path 14" d="M33.346,5.873h4.6L4.6,58.125H0Z" transform="translate(180.743 2773)" fill="#b7b7b7"/>
    <path id="Path_15" data-name="Path 15" d="M33.346,5.873h4.6L4.6,58.125H0Z" transform="translate(24.279 2773)" fill="#b7b7b7"/>
    <path id="Path_16" data-name="Path 16" d="M33.346,5.873h4.6L4.6,58.125H0Z" transform="translate(44.988 2773)" fill="#b7b7b7"/>
    <path id="Path_17" data-name="Path 17" d="M33.346,5.873h4.6L4.6,58.125H0Z" transform="translate(35.017 2773)" fill="#b7b7b7"/>
    <path id="Path_18" data-name="Path 18" d="M33.346,5.873h4.6L4.6,58.125H0Z" transform="translate(55.726 2773)" fill="#b7b7b7"/>
    <path id="Path_19" data-name="Path 19" d="M33.346,5.873h4.6L4.6,58.125H0Z" transform="translate(65.696 2773)" fill="#b7b7b7"/>
    <path id="Path_20" data-name="Path 20" d="M33.346,5.873h4.6L4.6,58.125H0Z" transform="translate(86.405 2773)" fill="#b7b7b7"/>
    <path id="Path_21" data-name="Path 21" d="M33.346,5.873h4.6L4.6,58.125H0Z" transform="translate(76.434 2773)" fill="#b7b7b7"/>
    <path id="Path_22" data-name="Path 22" d="M33.346,5.873h4.6L4.6,58.125H0Z" transform="translate(97.142 2773)" fill="#b7b7b7"/>
    <path id="Path_23" data-name="Path 23" d="M33.346,5.873h4.6L4.6,58.125H0Z" transform="translate(-6.4 2773)" fill="#b7b7b7"/>
    <path id="Path_24" data-name="Path 24" d="M33.346,5.873h4.6L4.6,58.125H0Z" transform="translate(14.309 2773)" fill="#b7b7b7"/>
    <path id="Path_25" data-name="Path 25" d="M33.346,5.873h4.6L4.6,58.125H0Z" transform="translate(4.338 2773)" fill="#b7b7b7"/>
    <path id="Path_30" data-name="Path 30" d="M33.346,5.873h4.6L4.6,58.125H0Z" transform="translate(-48.583 2773)" fill="#b7b7b7"/>
    <path id="Path_31" data-name="Path 31" d="M33.346,5.873h4.6L4.6,58.125H0Z" transform="translate(-27.875 2773)" fill="#b7b7b7"/>
    <path id="Path_32" data-name="Path 32" d="M33.346,5.873h4.6L4.6,58.125H0Z" transform="translate(-37.846 2773)" fill="#b7b7b7"/>
    <path id="Path_33" data-name="Path 33" d="M33.346,5.873h4.6L4.6,58.125H0Z" transform="translate(-17.137 2773)" fill="#b7b7b7"/>
    <path id="Path_26" data-name="Path 26" d="M33.346,5.873h4.6L4.6,58.125H0Z" transform="translate(-90 2773)" fill="#b7b7b7"/>
    <path id="Path_28" data-name="Path 28" d="M33.346,5.873h4.6L4.6,58.125H0Z" transform="translate(-79.262 2773)" fill="#b7b7b7"/>
    <path id="Path_27" data-name="Path 27" d="M33.346,5.873h4.6L4.6,58.125H0Z" transform="translate(-69.292 2773)" fill="#b7b7b7"/>
    <path id="Path_29" data-name="Path 29" d="M33.346,5.873h4.6L4.6,58.125H0Z" transform="translate(-58.554 2773)" fill="#b7b7b7"/>
  </g>
</svg>
