<svg xmlns="http://www.w3.org/2000/svg" width="402.478" height="68.127" viewBox="0 0 402.478 68.127">
  <g id="Group_3" data-name="Group 3" transform="translate(90 -2778.873)">
    <path id="Path_7" data-name="Path 7" d="M43.478,5.873h6L6,74H0Z" transform="translate(168 2773)" fill="#cdcdcd"/>
    <path id="Path_9" data-name="Path 9" d="M43.478,5.873h6L6,74H0Z" transform="translate(195 2773)" fill="#cdcdcd"/>
    <path id="Path_8" data-name="Path 8" d="M43.478,5.873h6L6,74H0Z" transform="translate(182 2773)" fill="#cdcdcd"/>
    <path id="Path_10" data-name="Path 10" d="M43.478,5.873h6L6,74H0Z" transform="translate(209 2773)" fill="#cdcdcd"/>
    <path id="Path_11" data-name="Path 11" d="M43.478,5.873h6L6,74H0Z" transform="translate(222 2773)" fill="#cdcdcd"/>
    <path id="Path_12" data-name="Path 12" d="M43.478,5.873h6L6,74H0Z" transform="translate(249 2773)" fill="#cdcdcd"/>
    <path id="Path_13" data-name="Path 13" d="M43.478,5.873h6L6,74H0Z" transform="translate(236 2773)" fill="#cdcdcd"/>
    <path id="Path_14" data-name="Path 14" d="M43.478,5.873h6L6,74H0Z" transform="translate(263 2773)" fill="#cdcdcd"/>
    <path id="Path_15" data-name="Path 15" d="M43.478,5.873h6L6,74H0Z" transform="translate(59 2773)" fill="#cdcdcd"/>
    <path id="Path_16" data-name="Path 16" d="M43.478,5.873h6L6,74H0Z" transform="translate(86 2773)" fill="#cdcdcd"/>
    <path id="Path_17" data-name="Path 17" d="M43.478,5.873h6L6,74H0Z" transform="translate(73 2773)" fill="#cdcdcd"/>
    <path id="Path_18" data-name="Path 18" d="M43.478,5.873h6L6,74H0Z" transform="translate(100 2773)" fill="#cdcdcd"/>
    <path id="Path_19" data-name="Path 19" d="M43.478,5.873h6L6,74H0Z" transform="translate(113 2773)" fill="#cdcdcd"/>
    <path id="Path_20" data-name="Path 20" d="M43.478,5.873h6L6,74H0Z" transform="translate(140 2773)" fill="#cdcdcd"/>
    <path id="Path_21" data-name="Path 21" d="M43.478,5.873h6L6,74H0Z" transform="translate(127 2773)" fill="#cdcdcd"/>
    <path id="Path_22" data-name="Path 22" d="M43.478,5.873h6L6,74H0Z" transform="translate(154 2773)" fill="#cdcdcd"/>
    <path id="Path_23" data-name="Path 23" d="M43.478,5.873h6L6,74H0Z" transform="translate(19 2773)" fill="#cdcdcd"/>
    <path id="Path_24" data-name="Path 24" d="M43.478,5.873h6L6,74H0Z" transform="translate(46 2773)" fill="#cdcdcd"/>
    <path id="Path_25" data-name="Path 25" d="M43.478,5.873h6L6,74H0Z" transform="translate(33 2773)" fill="#cdcdcd"/>
    <path id="Path_30" data-name="Path 30" d="M43.478,5.873h6L6,74H0Z" transform="translate(-36 2773)" fill="#cdcdcd"/>
    <path id="Path_31" data-name="Path 31" d="M43.478,5.873h6L6,74H0Z" transform="translate(-9 2773)" fill="#cdcdcd"/>
    <path id="Path_32" data-name="Path 32" d="M43.478,5.873h6L6,74H0Z" transform="translate(-22 2773)" fill="#cdcdcd"/>
    <path id="Path_33" data-name="Path 33" d="M43.478,5.873h6L6,74H0Z" transform="translate(5 2773)" fill="#cdcdcd"/>
    <path id="Path_26" data-name="Path 26" d="M43.478,5.873h6L6,74H0Z" transform="translate(-90 2773)" fill="#cdcdcd"/>
    <path id="Path_28" data-name="Path 28" d="M43.478,5.873h6L6,74H0Z" transform="translate(-76 2773)" fill="#cdcdcd"/>
    <path id="Path_27" data-name="Path 27" d="M43.478,5.873h6L6,74H0Z" transform="translate(-63 2773)" fill="#cdcdcd"/>
    <path id="Path_29" data-name="Path 29" d="M43.478,5.873h6L6,74H0Z" transform="translate(-49 2773)" fill="#cdcdcd"/>
  </g>
</svg>
