<svg xmlns="http://www.w3.org/2000/svg" width="46.02" height="29" viewBox="0 0 46.02 29"><path d="M45.345,8.934a.674.674,0,0,0,.674-.674V7.379A2.6,2.6,0,0,0,42.288,5.04L35.415,8.368V6.5a6.5,6.5,0,0,0-6.5-6.5H6.5A6.5,6.5,0,0,0,0,6.5V22.5A6.5,6.5,0,0,0,4.35,28.636.674.674,0,0,0,4.8,27.364,5.155,5.155,0,0,1,1.348,22.5V6.5A5.155,5.155,0,0,1,6.5,1.348H28.918A5.155,5.155,0,0,1,34.067,6.5V22.5a5.155,5.155,0,0,1-5.149,5.149H7.847a.674.674,0,0,0,0,1.348H28.918a6.5,6.5,0,0,0,6.5-6.5V20.632l6.873,3.328a2.6,2.6,0,0,0,3.731-2.339V11.477a.674.674,0,0,0-1.348,0V21.622a1.25,1.25,0,0,1-1.8,1.125l-.895-.434V6.687l.895-.434a1.25,1.25,0,0,1,1.8,1.125V8.26a.674.674,0,0,0,.674.674ZM40.632,21.661l-5.217-2.527V9.866L40.632,7.34Zm-8.6.842V6.5a3.122,3.122,0,0,0-3.119-3.119H6.5A3.122,3.122,0,0,0,3.378,6.5V22.5A3.122,3.122,0,0,0,6.5,25.622H28.918A3.122,3.122,0,0,0,32.037,22.5Zm-27.31,0V6.5A1.773,1.773,0,0,1,6.5,4.726H28.918A1.773,1.773,0,0,1,30.689,6.5V22.5a1.773,1.773,0,0,1-1.771,1.771H6.5A1.773,1.773,0,0,1,4.727,22.5ZM23.2,15.694a2.1,2.1,0,0,0-2.965,0l-.844.844a.4.4,0,0,1-.5.056,11.882,11.882,0,0,1-3.736-3.736.4.4,0,0,1,.056-.5l.844-.844a2.1,2.1,0,0,0,0-2.965L14.3,6.785a2.1,2.1,0,0,0-2.965,0L10.162,7.953A4,4,0,0,0,9.6,12.927a29.35,29.35,0,0,0,9.232,9.231A4,4,0,0,0,23.8,21.6l1.168-1.168a2.1,2.1,0,0,0,0-2.965Zm.815,3.78-1.169,1.169a2.657,2.657,0,0,1-3.3.374,27.985,27.985,0,0,1-8.805-8.805,2.656,2.656,0,0,1,.374-3.3l1.169-1.169a.748.748,0,0,1,1.058,0L15.11,9.506a.749.749,0,0,1,0,1.058l-.844.844a1.741,1.741,0,0,0-.245,2.166,13.235,13.235,0,0,0,4.163,4.162,1.741,1.741,0,0,0,2.166-.245l.844-.844a.749.749,0,0,1,1.058,0l1.768,1.768a.748.748,0,0,1,0,1.058Zm0,0" transform="translate(0 0)" fill="#fff"/></svg>