<svg xmlns="http://www.w3.org/2000/svg" width="774.034" height="410.641" viewBox="0 0 774.034 410.641">
  <g id="Group_45" data-name="Group 45" transform="translate(-432.116 -1704.211)">
    <g id="Group_6" data-name="Group 6" transform="translate(-486.884 1385.211)" opacity="0.03">
      <circle id="Ellipse_16" data-name="Ellipse 16" cx="10.888" cy="10.888" r="10.888" transform="translate(1292.31 319)" fill="#fff"/>
      <circle id="Ellipse_50" data-name="Ellipse 50" cx="10.888" cy="10.888" r="10.888" transform="translate(1286.088 511.877)" fill="#fff"/>
      <circle id="Ellipse_68" data-name="Ellipse 68" cx="10.888" cy="10.888" r="10.888" transform="translate(1380.874 409.217)" fill="#fff"/>
      <circle id="Ellipse_17" data-name="Ellipse 17" cx="10.888" cy="10.888" r="10.888" transform="translate(1292.31 356.331)" fill="#fff"/>
      <circle id="Ellipse_49" data-name="Ellipse 49" cx="10.888" cy="10.888" r="10.888" transform="translate(1286.088 549.208)" fill="#fff"/>
      <circle id="Ellipse_84" data-name="Ellipse 84" cx="10.888" cy="10.888" r="10.888" transform="translate(1323.419 586.539)" fill="#fff"/>
      <circle id="Ellipse_87" data-name="Ellipse 87" cx="10.888" cy="10.888" r="10.888" transform="translate(1360.75 623.87)" fill="#fff"/>
      <circle id="Ellipse_90" data-name="Ellipse 90" cx="10.888" cy="10.888" r="10.888" transform="translate(1398.081 661.201)" fill="#fff"/>
      <circle id="Ellipse_93" data-name="Ellipse 93" cx="10.888" cy="10.888" r="10.888" transform="translate(1435.412 698.532)" fill="#fff"/>
      <circle id="Ellipse_67" data-name="Ellipse 67" cx="10.888" cy="10.888" r="10.888" transform="translate(1380.874 446.548)" fill="#fff"/>
      <circle id="Ellipse_22" data-name="Ellipse 22" cx="10.888" cy="10.888" r="10.888" transform="translate(1254.979 393.662)" fill="#fff"/>
      <circle id="Ellipse_53" data-name="Ellipse 53" cx="10.888" cy="10.888" r="10.888" transform="translate(1248.757 586.539)" fill="#fff"/>
      <circle id="Ellipse_71" data-name="Ellipse 71" cx="10.888" cy="10.888" r="10.888" transform="translate(1416.552 483.879)" fill="#fff"/>
      <circle id="Ellipse_37" data-name="Ellipse 37" cx="10.888" cy="10.888" r="10.888" transform="translate(1142.986 505.655)" fill="#fff"/>
      <circle id="Ellipse_62" data-name="Ellipse 62" cx="10.888" cy="10.888" r="10.888" transform="translate(1136.764 698.532)" fill="#fff"/>
      <circle id="Ellipse_80" data-name="Ellipse 80" cx="10.888" cy="10.888" r="10.888" transform="translate(1523.587 595.872)" fill="#fff"/>
      <circle id="Ellipse_46" data-name="Ellipse 46" cx="10.888" cy="10.888" r="10.888" transform="translate(1030.993 617.648)" fill="#fff"/>
      <circle id="Ellipse_25" data-name="Ellipse 25" cx="10.888" cy="10.888" r="10.888" transform="translate(1217.648 430.993)" fill="#fff"/>
      <circle id="Ellipse_55" data-name="Ellipse 55" cx="10.888" cy="10.888" r="10.888" transform="translate(1211.426 623.87)" fill="#fff"/>
      <circle id="Ellipse_73" data-name="Ellipse 73" cx="10.888" cy="10.888" r="10.888" transform="translate(1452.23 521.21)" fill="#fff"/>
      <circle id="Ellipse_34" data-name="Ellipse 34" cx="10.888" cy="10.888" r="10.888" transform="translate(1105.655 542.986)" fill="#fff"/>
      <circle id="Ellipse_82" data-name="Ellipse 82" cx="10.888" cy="10.888" r="10.888" transform="translate(1559.265 633.203)" fill="#fff"/>
      <circle id="Ellipse_98" data-name="Ellipse 98" cx="10.888" cy="10.888" r="10.888" transform="translate(1596.596 670.534)" fill="#fff"/>
      <circle id="Ellipse_101" data-name="Ellipse 101" cx="10.888" cy="10.888" r="10.888" transform="translate(1633.927 707.865)" fill="#fff"/>
      <circle id="Ellipse_43" data-name="Ellipse 43" cx="10.888" cy="10.888" r="10.888" transform="translate(993.662 654.979)" fill="#fff"/>
      <circle id="Ellipse_28" data-name="Ellipse 28" cx="10.888" cy="10.888" r="10.888" transform="translate(1180.317 468.324)" fill="#fff"/>
      <circle id="Ellipse_59" data-name="Ellipse 59" cx="10.888" cy="10.888" r="10.888" transform="translate(1174.095 661.201)" fill="#fff"/>
      <circle id="Ellipse_77" data-name="Ellipse 77" cx="10.888" cy="10.888" r="10.888" transform="translate(1487.908 558.541)" fill="#fff"/>
      <circle id="Ellipse_31" data-name="Ellipse 31" cx="10.888" cy="10.888" r="10.888" transform="translate(1068.324 580.317)" fill="#fff"/>
      <circle id="Ellipse_40" data-name="Ellipse 40" cx="10.888" cy="10.888" r="10.888" transform="translate(956.331 692.31)" fill="#fff"/>
      <circle id="Ellipse_19" data-name="Ellipse 19" cx="10.888" cy="10.888" r="10.888" transform="translate(1329.641 356.331)" fill="#fff"/>
      <circle id="Ellipse_48" data-name="Ellipse 48" cx="10.888" cy="10.888" r="10.888" transform="translate(1323.419 549.208)" fill="#fff"/>
      <circle id="Ellipse_86" data-name="Ellipse 86" cx="10.888" cy="10.888" r="10.888" transform="translate(1360.75 586.539)" fill="#fff"/>
      <circle id="Ellipse_89" data-name="Ellipse 89" cx="10.888" cy="10.888" r="10.888" transform="translate(1398.081 623.87)" fill="#fff"/>
      <circle id="Ellipse_92" data-name="Ellipse 92" cx="10.888" cy="10.888" r="10.888" transform="translate(1435.412 661.201)" fill="#fff"/>
      <circle id="Ellipse_95" data-name="Ellipse 95" cx="10.888" cy="10.888" r="10.888" transform="translate(1472.743 698.532)" fill="#fff"/>
      <circle id="Ellipse_66" data-name="Ellipse 66" cx="10.888" cy="10.888" r="10.888" transform="translate(1345.196 446.548)" fill="#fff"/>
      <circle id="Ellipse_20" data-name="Ellipse 20" cx="10.888" cy="10.888" r="10.888" transform="translate(1254.979 356.331)" fill="#fff"/>
      <circle id="Ellipse_51" data-name="Ellipse 51" cx="10.888" cy="10.888" r="10.888" transform="translate(1248.757 549.208)" fill="#fff"/>
      <circle id="Ellipse_69" data-name="Ellipse 69" cx="10.888" cy="10.888" r="10.888" transform="translate(1416.552 446.548)" fill="#fff"/>
      <circle id="Ellipse_21" data-name="Ellipse 21" cx="10.888" cy="10.888" r="10.888" transform="translate(1217.648 393.662)" fill="#fff"/>
      <circle id="Ellipse_56" data-name="Ellipse 56" cx="10.888" cy="10.888" r="10.888" transform="translate(1211.426 586.539)" fill="#fff"/>
      <circle id="Ellipse_74" data-name="Ellipse 74" cx="10.888" cy="10.888" r="10.888" transform="translate(1452.23 483.879)" fill="#fff"/>
      <circle id="Ellipse_38" data-name="Ellipse 38" cx="10.888" cy="10.888" r="10.888" transform="translate(1105.655 505.655)" fill="#fff"/>
      <circle id="Ellipse_65" data-name="Ellipse 65" cx="10.888" cy="10.888" r="10.888" transform="translate(1099.433 698.532)" fill="#fff"/>
      <circle id="Ellipse_83" data-name="Ellipse 83" cx="10.888" cy="10.888" r="10.888" transform="translate(1559.265 595.872)" fill="#fff"/>
      <circle id="Ellipse_96" data-name="Ellipse 96" cx="10.888" cy="10.888" r="10.888" transform="translate(1596.596 633.203)" fill="#fff"/>
      <circle id="Ellipse_99" data-name="Ellipse 99" cx="10.888" cy="10.888" r="10.888" transform="translate(1633.927 670.534)" fill="#fff"/>
      <circle id="Ellipse_102" data-name="Ellipse 102" cx="10.888" cy="10.888" r="10.888" transform="translate(1671.258 707.865)" fill="#fff"/>
      <circle id="Ellipse_47" data-name="Ellipse 47" cx="10.888" cy="10.888" r="10.888" transform="translate(993.662 617.648)" fill="#fff"/>
      <circle id="Ellipse_24" data-name="Ellipse 24" cx="10.888" cy="10.888" r="10.888" transform="translate(1180.317 430.993)" fill="#fff"/>
      <circle id="Ellipse_57" data-name="Ellipse 57" cx="10.888" cy="10.888" r="10.888" transform="translate(1174.095 623.87)" fill="#fff"/>
      <circle id="Ellipse_75" data-name="Ellipse 75" cx="10.888" cy="10.888" r="10.888" transform="translate(1487.908 521.21)" fill="#fff"/>
      <circle id="Ellipse_33" data-name="Ellipse 33" cx="10.888" cy="10.888" r="10.888" transform="translate(1068.324 542.986)" fill="#fff"/>
      <circle id="Ellipse_42" data-name="Ellipse 42" cx="10.888" cy="10.888" r="10.888" transform="translate(956.331 654.979)" fill="#fff"/>
      <circle id="Ellipse_27" data-name="Ellipse 27" cx="10.888" cy="10.888" r="10.888" transform="translate(1142.986 468.324)" fill="#fff"/>
      <circle id="Ellipse_60" data-name="Ellipse 60" cx="10.888" cy="10.888" r="10.888" transform="translate(1136.764 661.201)" fill="#fff"/>
      <circle id="Ellipse_78" data-name="Ellipse 78" cx="10.888" cy="10.888" r="10.888" transform="translate(1523.587 558.541)" fill="#fff"/>
      <circle id="Ellipse_30" data-name="Ellipse 30" cx="10.888" cy="10.888" r="10.888" transform="translate(1030.993 580.317)" fill="#fff"/>
      <circle id="Ellipse_39" data-name="Ellipse 39" cx="10.888" cy="10.888" r="10.888" transform="translate(919 692.31)" fill="#fff"/>
      <circle id="Ellipse_18" data-name="Ellipse 18" cx="10.888" cy="10.888" r="10.888" transform="translate(1292.31 393.662)" fill="#fff"/>
      <circle id="Ellipse_52" data-name="Ellipse 52" cx="10.888" cy="10.888" r="10.888" transform="translate(1286.088 586.539)" fill="#fff"/>
      <circle id="Ellipse_85" data-name="Ellipse 85" cx="10.888" cy="10.888" r="10.888" transform="translate(1323.419 623.87)" fill="#fff"/>
      <circle id="Ellipse_88" data-name="Ellipse 88" cx="10.888" cy="10.888" r="10.888" transform="translate(1360.75 661.201)" fill="#fff"/>
      <circle id="Ellipse_91" data-name="Ellipse 91" cx="10.888" cy="10.888" r="10.888" transform="translate(1398.081 698.532)" fill="#fff"/>
      <circle id="Ellipse_70" data-name="Ellipse 70" cx="10.888" cy="10.888" r="10.888" transform="translate(1380.874 483.879)" fill="#fff"/>
      <circle id="Ellipse_23" data-name="Ellipse 23" cx="10.888" cy="10.888" r="10.888" transform="translate(1254.979 430.993)" fill="#fff"/>
      <circle id="Ellipse_54" data-name="Ellipse 54" cx="10.888" cy="10.888" r="10.888" transform="translate(1248.757 623.87)" fill="#fff"/>
      <circle id="Ellipse_72" data-name="Ellipse 72" cx="10.888" cy="10.888" r="10.888" transform="translate(1416.552 521.21)" fill="#fff"/>
      <circle id="Ellipse_36" data-name="Ellipse 36" cx="10.888" cy="10.888" r="10.888" transform="translate(1142.986 542.986)" fill="#fff"/>
      <circle id="Ellipse_81" data-name="Ellipse 81" cx="10.888" cy="10.888" r="10.888" transform="translate(1523.587 633.203)" fill="#fff"/>
      <circle id="Ellipse_97" data-name="Ellipse 97" cx="10.888" cy="10.888" r="10.888" transform="translate(1560.918 670.534)" fill="#fff"/>
      <circle id="Ellipse_100" data-name="Ellipse 100" cx="10.888" cy="10.888" r="10.888" transform="translate(1598.249 707.865)" fill="#fff"/>
      <circle id="Ellipse_45" data-name="Ellipse 45" cx="10.888" cy="10.888" r="10.888" transform="translate(1030.993 654.979)" fill="#fff"/>
      <circle id="Ellipse_26" data-name="Ellipse 26" cx="10.888" cy="10.888" r="10.888" transform="translate(1217.648 468.324)" fill="#fff"/>
      <circle id="Ellipse_58" data-name="Ellipse 58" cx="10.888" cy="10.888" r="10.888" transform="translate(1211.426 661.201)" fill="#fff"/>
      <circle id="Ellipse_76" data-name="Ellipse 76" cx="10.888" cy="10.888" r="10.888" transform="translate(1452.23 558.541)" fill="#fff"/>
      <circle id="Ellipse_35" data-name="Ellipse 35" cx="10.888" cy="10.888" r="10.888" transform="translate(1105.655 580.317)" fill="#fff"/>
      <circle id="Ellipse_44" data-name="Ellipse 44" cx="10.888" cy="10.888" r="10.888" transform="translate(993.662 692.31)" fill="#fff"/>
      <circle id="Ellipse_29" data-name="Ellipse 29" cx="10.888" cy="10.888" r="10.888" transform="translate(1180.317 505.655)" fill="#fff"/>
      <circle id="Ellipse_61" data-name="Ellipse 61" cx="10.888" cy="10.888" r="10.888" transform="translate(1174.095 698.532)" fill="#fff"/>
      <circle id="Ellipse_79" data-name="Ellipse 79" cx="10.888" cy="10.888" r="10.888" transform="translate(1487.908 595.872)" fill="#fff"/>
      <circle id="Ellipse_32" data-name="Ellipse 32" cx="10.888" cy="10.888" r="10.888" transform="translate(1068.324 617.648)" fill="#fff"/>
    </g>
    <g id="Group_5" data-name="Group 5" transform="translate(-341 1617)">
      <circle id="Ellipse_16-2" data-name="Ellipse 16" cx="3.5" cy="3.5" r="3.5" transform="translate(1039 319)" fill="#c62828"/>
      <circle id="Ellipse_50-2" data-name="Ellipse 50" cx="3.5" cy="3.5" r="3.5" transform="translate(1037 381)" fill="#c62828"/>
      <circle id="Ellipse_68-2" data-name="Ellipse 68" cx="3.5" cy="3.5" r="3.5" transform="translate(1067.469 348)" fill="#c62828"/>
      <circle id="Ellipse_17-2" data-name="Ellipse 17" cx="3.5" cy="3.5" r="3.5" transform="translate(1039 331)" fill="#c62828"/>
      <circle id="Ellipse_49-2" data-name="Ellipse 49" cx="3.5" cy="3.5" r="3.5" transform="translate(1037 393)" fill="#c62828"/>
      <circle id="Ellipse_84-2" data-name="Ellipse 84" cx="3.5" cy="3.5" r="3.5" transform="translate(1049 405)" fill="#c62828"/>
      <circle id="Ellipse_87-2" data-name="Ellipse 87" cx="3.5" cy="3.5" r="3.5" transform="translate(1061 417)" fill="#c62828"/>
      <circle id="Ellipse_90-2" data-name="Ellipse 90" cx="3.5" cy="3.5" r="3.5" transform="translate(1073 429)" fill="#c62828"/>
      <circle id="Ellipse_93-2" data-name="Ellipse 93" cx="3.5" cy="3.5" r="3.5" transform="translate(1085 441)" fill="#c62828"/>
      <circle id="Ellipse_67-2" data-name="Ellipse 67" cx="3.5" cy="3.5" r="3.5" transform="translate(1067.469 360)" fill="#c62828"/>
      <circle id="Ellipse_22-2" data-name="Ellipse 22" cx="3.5" cy="3.5" r="3.5" transform="translate(1027 343)" fill="#c62828"/>
      <circle id="Ellipse_53-2" data-name="Ellipse 53" cx="3.5" cy="3.5" r="3.5" transform="translate(1025 405)" fill="#c62828"/>
      <circle id="Ellipse_71-2" data-name="Ellipse 71" cx="3.5" cy="3.5" r="3.5" transform="translate(1078.937 372)" fill="#c62828"/>
      <circle id="Ellipse_37-2" data-name="Ellipse 37" cx="3.5" cy="3.5" r="3.5" transform="translate(991 379)" fill="#c62828"/>
      <circle id="Ellipse_62-2" data-name="Ellipse 62" cx="3.5" cy="3.5" r="3.5" transform="translate(989 441)" fill="#c62828"/>
      <circle id="Ellipse_80-2" data-name="Ellipse 80" cx="3.5" cy="3.5" r="3.5" transform="translate(1113.344 408)" fill="#c62828"/>
      <circle id="Ellipse_46-2" data-name="Ellipse 46" cx="3.5" cy="3.5" r="3.5" transform="translate(955 415)" fill="#c62828"/>
      <circle id="Ellipse_25-2" data-name="Ellipse 25" cx="3.5" cy="3.5" r="3.5" transform="translate(1015 355)" fill="#c62828"/>
      <circle id="Ellipse_55-2" data-name="Ellipse 55" cx="3.5" cy="3.5" r="3.5" transform="translate(1013 417)" fill="#c62828"/>
      <circle id="Ellipse_73-2" data-name="Ellipse 73" cx="3.5" cy="3.5" r="3.5" transform="translate(1090.406 384)" fill="#c62828"/>
      <circle id="Ellipse_34-2" data-name="Ellipse 34" cx="3.5" cy="3.5" r="3.5" transform="translate(979 391)" fill="#c62828"/>
      <circle id="Ellipse_82-2" data-name="Ellipse 82" cx="3.5" cy="3.5" r="3.5" transform="translate(1124.812 420)" fill="#c62828"/>
      <circle id="Ellipse_98-2" data-name="Ellipse 98" cx="3.5" cy="3.5" r="3.5" transform="translate(1136.812 432)" fill="#c62828"/>
      <circle id="Ellipse_101-2" data-name="Ellipse 101" cx="3.5" cy="3.5" r="3.5" transform="translate(1148.812 444)" fill="#c62828"/>
      <circle id="Ellipse_43-2" data-name="Ellipse 43" cx="3.5" cy="3.5" r="3.5" transform="translate(943 427)" fill="#c62828"/>
      <circle id="Ellipse_28-2" data-name="Ellipse 28" cx="3.5" cy="3.5" r="3.5" transform="translate(1003 367)" fill="#c62828"/>
      <circle id="Ellipse_59-2" data-name="Ellipse 59" cx="3.5" cy="3.5" r="3.5" transform="translate(1001 429)" fill="#c62828"/>
      <circle id="Ellipse_77-2" data-name="Ellipse 77" cx="3.5" cy="3.5" r="3.5" transform="translate(1101.875 396)" fill="#c62828"/>
      <circle id="Ellipse_31-2" data-name="Ellipse 31" cx="3.5" cy="3.5" r="3.5" transform="translate(967 403)" fill="#c62828"/>
      <circle id="Ellipse_40-2" data-name="Ellipse 40" cx="3.5" cy="3.5" r="3.5" transform="translate(931 439)" fill="#c62828"/>
      <circle id="Ellipse_19-2" data-name="Ellipse 19" cx="3.5" cy="3.5" r="3.5" transform="translate(1051 331)" fill="#c62828"/>
      <circle id="Ellipse_48-2" data-name="Ellipse 48" cx="3.5" cy="3.5" r="3.5" transform="translate(1049 393)" fill="#c62828"/>
      <circle id="Ellipse_86-2" data-name="Ellipse 86" cx="3.5" cy="3.5" r="3.5" transform="translate(1061 405)" fill="#c62828"/>
      <circle id="Ellipse_89-2" data-name="Ellipse 89" cx="3.5" cy="3.5" r="3.5" transform="translate(1073 417)" fill="#c62828"/>
      <circle id="Ellipse_92-2" data-name="Ellipse 92" cx="3.5" cy="3.5" r="3.5" transform="translate(1085 429)" fill="#c62828"/>
      <circle id="Ellipse_95-2" data-name="Ellipse 95" cx="3.5" cy="3.5" r="3.5" transform="translate(1097 441)" fill="#c62828"/>
      <circle id="Ellipse_66-2" data-name="Ellipse 66" cx="3.5" cy="3.5" r="3.5" transform="translate(1056 360)" fill="#c62828"/>
      <circle id="Ellipse_20-2" data-name="Ellipse 20" cx="3.5" cy="3.5" r="3.5" transform="translate(1027 331)" fill="#c62828"/>
      <circle id="Ellipse_51-2" data-name="Ellipse 51" cx="3.5" cy="3.5" r="3.5" transform="translate(1025 393)" fill="#c62828"/>
      <circle id="Ellipse_69-2" data-name="Ellipse 69" cx="3.5" cy="3.5" r="3.5" transform="translate(1078.937 360)" fill="#c62828"/>
      <circle id="Ellipse_21-2" data-name="Ellipse 21" cx="3.5" cy="3.5" r="3.5" transform="translate(1015 343)" fill="#c62828"/>
      <circle id="Ellipse_56-2" data-name="Ellipse 56" cx="3.5" cy="3.5" r="3.5" transform="translate(1013 405)" fill="#c62828"/>
      <circle id="Ellipse_74-2" data-name="Ellipse 74" cx="3.5" cy="3.5" r="3.5" transform="translate(1090.406 372)" fill="#c62828"/>
      <circle id="Ellipse_38-2" data-name="Ellipse 38" cx="3.5" cy="3.5" r="3.5" transform="translate(979 379)" fill="#c62828"/>
      <circle id="Ellipse_65-2" data-name="Ellipse 65" cx="3.5" cy="3.5" r="3.5" transform="translate(977 441)" fill="#c62828"/>
      <circle id="Ellipse_83-2" data-name="Ellipse 83" cx="3.5" cy="3.5" r="3.5" transform="translate(1124.812 408)" fill="#c62828"/>
      <circle id="Ellipse_96-2" data-name="Ellipse 96" cx="3.5" cy="3.5" r="3.5" transform="translate(1136.812 420)" fill="#c62828"/>
      <circle id="Ellipse_99-2" data-name="Ellipse 99" cx="3.5" cy="3.5" r="3.5" transform="translate(1148.812 432)" fill="#c62828"/>
      <circle id="Ellipse_102-2" data-name="Ellipse 102" cx="3.5" cy="3.5" r="3.5" transform="translate(1160.812 444)" fill="#c62828"/>
      <circle id="Ellipse_47-2" data-name="Ellipse 47" cx="3.5" cy="3.5" r="3.5" transform="translate(943 415)" fill="#c62828"/>
      <circle id="Ellipse_24-2" data-name="Ellipse 24" cx="3.5" cy="3.5" r="3.5" transform="translate(1003 355)" fill="#c62828"/>
      <circle id="Ellipse_57-2" data-name="Ellipse 57" cx="3.5" cy="3.5" r="3.5" transform="translate(1001 417)" fill="#c62828"/>
      <circle id="Ellipse_75-2" data-name="Ellipse 75" cx="3.5" cy="3.5" r="3.5" transform="translate(1101.875 384)" fill="#c62828"/>
      <circle id="Ellipse_33-2" data-name="Ellipse 33" cx="3.5" cy="3.5" r="3.5" transform="translate(967 391)" fill="#c62828"/>
      <circle id="Ellipse_42-2" data-name="Ellipse 42" cx="3.5" cy="3.5" r="3.5" transform="translate(931 427)" fill="#c62828"/>
      <circle id="Ellipse_27-2" data-name="Ellipse 27" cx="3.5" cy="3.5" r="3.5" transform="translate(991 367)" fill="#c62828"/>
      <circle id="Ellipse_60-2" data-name="Ellipse 60" cx="3.5" cy="3.5" r="3.5" transform="translate(989 429)" fill="#c62828"/>
      <circle id="Ellipse_78-2" data-name="Ellipse 78" cx="3.5" cy="3.5" r="3.5" transform="translate(1113.344 396)" fill="#c62828"/>
      <circle id="Ellipse_30-2" data-name="Ellipse 30" cx="3.5" cy="3.5" r="3.5" transform="translate(955 403)" fill="#c62828"/>
      <circle id="Ellipse_39-2" data-name="Ellipse 39" cx="3.5" cy="3.5" r="3.5" transform="translate(919 439)" fill="#c62828"/>
      <circle id="Ellipse_18-2" data-name="Ellipse 18" cx="3.5" cy="3.5" r="3.5" transform="translate(1039 343)" fill="#c62828"/>
      <circle id="Ellipse_52-2" data-name="Ellipse 52" cx="3.5" cy="3.5" r="3.5" transform="translate(1037 405)" fill="#c62828"/>
      <circle id="Ellipse_85-2" data-name="Ellipse 85" cx="3.5" cy="3.5" r="3.5" transform="translate(1049 417)" fill="#c62828"/>
      <circle id="Ellipse_88-2" data-name="Ellipse 88" cx="3.5" cy="3.5" r="3.5" transform="translate(1061 429)" fill="#c62828"/>
      <circle id="Ellipse_91-2" data-name="Ellipse 91" cx="3.5" cy="3.5" r="3.5" transform="translate(1073 441)" fill="#c62828"/>
      <circle id="Ellipse_70-2" data-name="Ellipse 70" cx="3.5" cy="3.5" r="3.5" transform="translate(1067.469 372)" fill="#c62828"/>
      <circle id="Ellipse_23-2" data-name="Ellipse 23" cx="3.5" cy="3.5" r="3.5" transform="translate(1027 355)" fill="#c62828"/>
      <circle id="Ellipse_54-2" data-name="Ellipse 54" cx="3.5" cy="3.5" r="3.5" transform="translate(1025 417)" fill="#c62828"/>
      <circle id="Ellipse_72-2" data-name="Ellipse 72" cx="3.5" cy="3.5" r="3.5" transform="translate(1078.937 384)" fill="#c62828"/>
      <circle id="Ellipse_36-2" data-name="Ellipse 36" cx="3.5" cy="3.5" r="3.5" transform="translate(991 391)" fill="#c62828"/>
      <circle id="Ellipse_81-2" data-name="Ellipse 81" cx="3.5" cy="3.5" r="3.5" transform="translate(1113.344 420)" fill="#c62828"/>
      <circle id="Ellipse_97-2" data-name="Ellipse 97" cx="3.5" cy="3.5" r="3.5" transform="translate(1125.344 432)" fill="#c62828"/>
      <circle id="Ellipse_100-2" data-name="Ellipse 100" cx="3.5" cy="3.5" r="3.5" transform="translate(1137.344 444)" fill="#c62828"/>
      <circle id="Ellipse_45-2" data-name="Ellipse 45" cx="3.5" cy="3.5" r="3.5" transform="translate(955 427)" fill="#c62828"/>
      <circle id="Ellipse_26-2" data-name="Ellipse 26" cx="3.5" cy="3.5" r="3.5" transform="translate(1015 367)" fill="#c62828"/>
      <circle id="Ellipse_58-2" data-name="Ellipse 58" cx="3.5" cy="3.5" r="3.5" transform="translate(1013 429)" fill="#c62828"/>
      <circle id="Ellipse_76-2" data-name="Ellipse 76" cx="3.5" cy="3.5" r="3.5" transform="translate(1090.406 396)" fill="#c62828"/>
      <circle id="Ellipse_35-2" data-name="Ellipse 35" cx="3.5" cy="3.5" r="3.5" transform="translate(979 403)" fill="#c62828"/>
      <circle id="Ellipse_44-2" data-name="Ellipse 44" cx="3.5" cy="3.5" r="3.5" transform="translate(943 439)" fill="#c62828"/>
      <circle id="Ellipse_29-2" data-name="Ellipse 29" cx="3.5" cy="3.5" r="3.5" transform="translate(1003 379)" fill="#c62828"/>
      <circle id="Ellipse_61-2" data-name="Ellipse 61" cx="3.5" cy="3.5" r="3.5" transform="translate(1001 441)" fill="#c62828"/>
      <circle id="Ellipse_79-2" data-name="Ellipse 79" cx="3.5" cy="3.5" r="3.5" transform="translate(1101.875 408)" fill="#c62828"/>
      <circle id="Ellipse_32-2" data-name="Ellipse 32" cx="3.5" cy="3.5" r="3.5" transform="translate(967 415)" fill="#c62828"/>
    </g>
  </g>
</svg>
