<?xml version="1.0" encoding="utf-8"?>
<!-- Generator: Adobe Illustrator 16.0.0, SVG Export Plug-In . SVG Version: 6.00 Build 0)  -->
<!DOCTYPE svg PUBLIC "-//W3C//DTD SVG 1.1//EN" "http://www.w3.org/Graphics/SVG/1.1/DTD/svg11.dtd">
<svg version="1.1" id="Layer_1" xmlns="http://www.w3.org/2000/svg" xmlns:xlink="http://www.w3.org/1999/xlink" x="0px" y="0px"
	 width="421.5px" height="66px" viewBox="0 0 421.5 66" enable-background="new 0 0 421.5 66" xml:space="preserve">
<g>
	<path d="M127.069,55.905h-6.697V17.216h6.697V55.905z"/>
	<path d="M133.499,41.316c0-4.428,1.027-7.984,3.082-10.668c2.055-2.684,4.81-4.025,8.265-4.025c3.046,0,5.509,1.063,7.387,3.188
		v-14.72h6.458v40.814h-5.846l-0.319-2.976c-1.931,2.338-4.509,3.508-7.732,3.508c-3.366,0-6.09-1.355-8.171-4.066
		C134.54,49.661,133.499,45.976,133.499,41.316z M139.956,41.875c0,2.923,0.562,5.204,1.688,6.843
		c1.125,1.638,2.724,2.458,4.796,2.458c2.64,0,4.571-1.178,5.793-3.535V35.364c-1.187-2.302-3.1-3.454-5.74-3.454
		c-2.09,0-3.703,0.829-4.836,2.484C140.522,36.052,139.956,38.545,139.956,41.875z"/>
	<path d="M178.087,56.437c-4.092,0-7.409-1.29-9.951-3.867s-3.813-6.009-3.813-10.296v-0.798c0-2.87,0.553-5.434,1.661-7.693
		c1.107-2.258,2.662-4.016,4.664-5.274c2.001-1.258,4.233-1.887,6.696-1.887c3.915,0,6.939,1.249,9.074,3.747
		c2.135,2.498,3.202,6.032,3.202,10.602v2.604h-18.787c0.194,2.374,0.988,4.251,2.378,5.633c1.39,1.382,3.14,2.073,5.248,2.073
		c2.958,0,5.368-1.196,7.227-3.588l3.481,3.322c-1.152,1.719-2.688,3.052-4.61,4C182.635,55.962,180.479,56.437,178.087,56.437z
		 M177.316,31.804c-1.771,0-3.202,0.62-4.291,1.859c-1.09,1.241-1.785,2.968-2.086,5.182h12.303v-0.479
		c-0.142-2.161-0.718-3.795-1.728-4.902C180.505,32.358,179.105,31.804,177.316,31.804z"/>
	<path d="M211.807,55.905c-0.283-0.549-0.531-1.444-0.744-2.684c-2.055,2.144-4.571,3.215-7.547,3.215
		c-2.887,0-5.244-0.824-7.068-2.472c-1.824-1.648-2.736-3.684-2.736-6.112c0-3.064,1.138-5.416,3.414-7.055
		c2.276-1.638,5.531-2.458,9.766-2.458h3.959v-1.886c0-1.488-0.417-2.68-1.249-3.574c-0.833-0.895-2.099-1.342-3.8-1.342
		c-1.471,0-2.675,0.368-3.614,1.103c-0.939,0.735-1.408,1.67-1.408,2.803h-6.458c0-1.576,0.523-3.051,1.568-4.424
		c1.045-1.373,2.467-2.448,4.265-3.229c1.797-0.779,3.804-1.169,6.019-1.169c3.365,0,6.049,0.846,8.051,2.537
		c2.002,1.693,3.029,4.07,3.082,7.135v12.967c0,2.587,0.363,4.65,1.09,6.191v0.452H211.807z M204.713,51.255
		c1.275,0,2.475-0.31,3.601-0.93c1.125-0.621,1.97-1.452,2.538-2.498v-5.42h-3.481c-2.391,0-4.189,0.416-5.394,1.249
		s-1.807,2.011-1.807,3.535c0,1.239,0.412,2.227,1.236,2.962C202.229,50.888,203.331,51.255,204.713,51.255z"/>
</g>
<g>
	<path d="M247.934,40.417h-15.572v16.395h-6.723V18.123h24.579v5.421h-17.856v11.505h15.572V40.417z"/>
	<path d="M253.141,42.171c0-2.817,0.559-5.355,1.676-7.614c1.115-2.258,2.684-3.994,4.702-5.208c2.02-1.213,4.34-1.82,6.962-1.82
		c3.879,0,7.028,1.249,9.446,3.747c2.417,2.497,3.725,5.81,3.919,9.938l0.026,1.515c0,2.834-0.544,5.368-1.635,7.6
		c-1.088,2.232-2.646,3.959-4.676,5.182c-2.028,1.222-4.37,1.834-7.027,1.834c-4.058,0-7.304-1.351-9.738-4.053
		c-2.436-2.701-3.655-6.302-3.655-10.802V42.171z M259.598,42.729c0,2.958,0.612,5.275,1.834,6.949
		c1.223,1.674,2.924,2.51,5.103,2.51c2.178,0,3.874-0.85,5.089-2.55c1.213-1.701,1.818-4.19,1.818-7.467
		c0-2.905-0.624-5.208-1.872-6.909c-1.249-1.701-2.945-2.551-5.089-2.551c-2.108,0-3.781,0.837-5.022,2.511
		C260.218,36.896,259.598,39.399,259.598,42.729z"/>
	<path d="M300.387,33.96c-0.851-0.143-1.728-0.213-2.63-0.213c-2.96,0-4.952,1.134-5.979,3.401v19.664h-6.457V28.062h6.164
		l0.16,3.215c1.559-2.499,3.718-3.747,6.483-3.747c0.921,0,1.682,0.124,2.285,0.372L300.387,33.96z"/>
	<path d="M313.887,21.072v6.989h5.074v4.783h-5.074v16.049c0,1.099,0.217,1.891,0.65,2.379c0.434,0.487,1.209,0.73,2.325,0.73
		c0.743,0,1.495-0.088,2.259-0.266v4.996c-1.471,0.407-2.889,0.612-4.253,0.612c-4.96,0-7.438-2.738-7.438-8.211V32.845h-4.731
		v-4.783h4.731v-6.989H313.887z"/>
	<path d="M341.309,53.996c-1.896,2.232-4.59,3.349-8.079,3.349c-3.117,0-5.478-0.913-7.081-2.738
		c-1.604-1.824-2.405-4.464-2.405-7.918V28.062h6.457v18.547c0,3.649,1.516,5.474,4.545,5.474c3.136,0,5.251-1.125,6.352-3.375
		V28.062h6.455v28.751h-6.085L341.309,53.996z"/>
	<path d="M360.122,28.062l0.187,3.322c2.125-2.569,4.915-3.854,8.37-3.854c5.986,0,9.034,3.428,9.141,10.283v19h-6.457V38.185
		c0-1.825-0.396-3.175-1.183-4.052c-0.789-0.877-2.078-1.315-3.866-1.315c-2.604,0-4.544,1.178-5.818,3.533v20.461h-6.458V28.062
		H360.122z"/>
	<path d="M397.058,57.344c-4.093,0-7.41-1.29-9.952-3.867c-2.543-2.577-3.813-6.009-3.813-10.296v-0.797
		c0-2.87,0.554-5.434,1.66-7.693c1.106-2.258,2.661-4.016,4.664-5.274c2.002-1.258,4.233-1.887,6.696-1.887
		c3.915,0,6.94,1.249,9.073,3.747c2.136,2.497,3.203,6.032,3.203,10.602v2.604h-18.787c0.194,2.374,0.988,4.251,2.379,5.633
		c1.389,1.382,3.14,2.073,5.246,2.073c2.96,0,5.369-1.195,7.229-3.587l3.481,3.322c-1.151,1.719-2.688,3.052-4.61,4
		C401.604,56.87,399.449,57.344,397.058,57.344z M396.287,32.711c-1.771,0-3.203,0.62-4.291,1.859
		c-1.091,1.241-1.786,2.968-2.087,5.182h12.303v-0.479c-0.143-2.161-0.718-3.795-1.728-4.901
		C399.476,33.265,398.074,32.711,396.287,32.711z"/>
</g>
<g>
	<polygon points="10.461,55.775 56.697,9.54 63.16,16.003 23.252,55.912 	"/>
	<polygon points="29.806,55.912 56.493,29.223 83.521,56.25 68.042,56.25 56.415,44.623 45.194,55.843 	"/>
	<polygon points="59.815,25.765 66.278,19.302 103,56.024 90.368,56.024 	"/>
</g>
</svg>
