<?xml version="1.0" encoding="utf-8"?>
<!-- Generator: Adobe Illustrator 16.0.0, SVG Export Plug-In . SVG Version: 6.00 Build 0)  -->
<!DOCTYPE svg PUBLIC "-//W3C//DTD SVG 1.1//EN" "http://www.w3.org/Graphics/SVG/1.1/DTD/svg11.dtd">
<svg version="1.1" xmlns="http://www.w3.org/2000/svg" xmlns:xlink="http://www.w3.org/1999/xlink" x="0px" y="0px" width="750px"
	 height="500px" viewBox="0 0 750 500" enable-background="new 0 0 750 500" xml:space="preserve">
<g id="Background_Complete">
	<g>
		<g>
			<g>
				
					<ellipse transform="matrix(0.9896 -0.1438 0.1438 0.9896 -8.0663 84.6703)" fill="#F5F5F5" cx="581.631" cy="98.129" rx="23.993" ry="23.939"/>
			</g>
			<g>
				
					<ellipse transform="matrix(0.9896 -0.1438 0.1438 0.9896 -8.0663 84.6699)" fill="#EBEBEB" cx="581.631" cy="98.13" rx="18.284" ry="18.242"/>
			</g>
			<g>
				<g>
					<path fill="#E0E0E0" d="M599.638,94.934c-0.109,0.02-0.302-0.763-0.794-2.106c-0.499-1.334-1.336-3.247-2.894-5.242
						c-0.777-0.993-1.729-2.002-2.873-2.94c-1.151-0.926-2.482-1.793-3.995-2.47c-0.755-0.341-1.55-0.646-2.383-0.881
						c-0.832-0.24-1.695-0.438-2.589-0.55c-0.891-0.115-1.806-0.184-2.734-0.16c-0.929,0.022-1.868,0.112-2.809,0.272
						c-0.938,0.173-1.853,0.413-2.731,0.711c-0.881,0.298-1.716,0.677-2.514,1.091c-0.8,0.413-1.543,0.896-2.241,1.408
						c-0.701,0.507-1.342,1.068-1.934,1.647c-1.188,1.156-2.14,2.429-2.899,3.695c-0.752,1.273-1.298,2.549-1.687,3.75
						c-0.774,2.409-0.901,4.492-0.909,5.917c0,1.431,0.089,2.232-0.021,2.25c-0.08,0.016-0.354-0.755-0.524-2.221
						c-0.16-1.457-0.188-3.642,0.504-6.224c0.348-1.286,0.871-2.663,1.626-4.045c0.766-1.374,1.747-2.762,2.995-4.03
						c0.622-0.635,1.3-1.249,2.046-1.807c0.743-0.562,1.538-1.092,2.396-1.547c0.855-0.457,1.756-0.872,2.704-1.198
						c0.947-0.328,1.933-0.588,2.944-0.774c1.015-0.173,2.029-0.268,3.031-0.287c1.003-0.02,1.99,0.061,2.95,0.194
						c0.962,0.131,1.891,0.356,2.781,0.628c0.893,0.267,1.741,0.61,2.543,0.992c1.608,0.76,3.008,1.725,4.2,2.752
						c1.184,1.038,2.15,2.15,2.92,3.237c1.539,2.186,2.266,4.247,2.617,5.67C599.71,94.102,599.719,94.92,599.638,94.934z"/>
				</g>
			</g>
		</g>
		<g>
			<g>
				<g>
					<path fill="#E0E0E0" d="M585.246,108.625l0.504,3.145l-2.808,0.449l-0.49-3.06c-2.807,0.276-5.613-0.167-7.351-1.127
						l0.995-3.673c1.57,0.814,3.713,1.249,5.767,1.121l-0.751-4.689c-3.238-0.258-6.886-0.74-7.528-4.756
						c-0.477-2.976,1.276-5.877,5.631-7.093l-0.499-3.117l2.809-0.45l0.49,3.061c2.133-0.168,4.271,0.064,5.974,0.8l-0.851,3.679
						c-1.563-0.585-3.099-0.829-4.53-0.773l0.765,4.774c3.233,0.23,6.826,0.722,7.459,4.68
						C591.298,104.517,589.569,107.386,585.246,108.625z M580.452,96.663l-0.64-3.987c-1.434,0.575-1.893,1.484-1.744,2.411
						C578.225,96.069,579.153,96.469,580.452,96.663z M586.365,102.658c-0.157-0.983-1.057-1.386-2.332-1.615l0.62,3.875
						C586.007,104.385,586.508,103.556,586.365,102.658z"/>
				</g>
			</g>
		</g>
	</g>
	<g>
		<g>
			<g>
				
					<ellipse transform="matrix(0.9896 -0.1438 0.1438 0.9896 -10.0013 71.4741)" fill="#F5F5F5" cx="489.392" cy="104.917" rx="41.65" ry="41.554"/>
			</g>
			<g>
				
					<ellipse transform="matrix(0.9896 -0.1438 0.1438 0.9896 -10.0017 71.4773)" fill="#EBEBEB" cx="489.392" cy="104.918" rx="31.74" ry="31.665"/>
			</g>
			<g>
				<g>
					<path fill="#E0E0E0" d="M520.651,99.37c-0.189,0.035-0.523-1.324-1.379-3.656c-0.865-2.316-2.318-5.637-5.022-9.101
						c-1.35-1.724-3.002-3.476-4.988-5.104c-1.997-1.607-4.309-3.113-6.935-4.287c-1.311-0.592-2.689-1.121-4.136-1.529
						c-1.443-0.416-2.943-0.76-4.493-0.955c-1.547-0.2-3.135-0.318-4.747-0.277c-1.611,0.039-3.242,0.194-4.876,0.472
						c-1.63,0.301-3.216,0.716-4.741,1.234c-1.528,0.517-2.979,1.174-4.363,1.894c-1.389,0.717-2.678,1.557-3.891,2.443
						c-1.218,0.881-2.33,1.854-3.356,2.859c-2.061,2.007-3.714,4.217-5.034,6.414c-1.304,2.21-2.252,4.425-2.926,6.509
						c-1.345,4.182-1.565,7.798-1.579,10.271c0.001,2.483,0.155,3.875-0.035,3.907c-0.14,0.028-0.613-1.312-0.91-3.856
						c-0.279-2.529-0.328-6.322,0.874-10.804c0.603-2.232,1.512-4.622,2.823-7.021c1.328-2.386,3.032-4.795,5.199-6.996
						c1.079-1.103,2.255-2.167,3.551-3.136c1.291-0.975,2.671-1.896,4.159-2.685c1.484-0.792,3.047-1.513,4.693-2.079
						c1.645-0.568,3.355-1.02,5.111-1.343c1.762-0.301,3.522-0.465,5.262-0.498c1.74-0.035,3.455,0.105,5.121,0.337
						c1.669,0.229,3.282,0.618,4.828,1.09c1.55,0.463,3.022,1.059,4.414,1.722c2.791,1.32,5.222,2.995,7.291,4.778
						c2.055,1.801,3.733,3.732,5.068,5.62c2.672,3.793,3.933,7.372,4.543,9.842C520.775,97.926,520.792,99.347,520.651,99.37z"/>
				</g>
			</g>
		</g>
		<g>
			<g>
				<g>
					<path fill="#E0E0E0" d="M495.667,123.136l0.875,5.459l-4.875,0.779l-0.85-5.312c-4.873,0.479-9.745-0.289-12.761-1.956
						l1.728-6.376c2.727,1.414,6.445,2.167,10.011,1.946l-1.305-8.141c-5.62-0.448-11.953-1.284-13.068-8.255
						c-0.827-5.167,2.215-10.203,9.775-12.313l-0.866-5.412l4.875-0.781l0.851,5.314c3.702-0.293,7.416,0.111,10.369,1.388
						l-1.476,6.386c-2.713-1.015-5.38-1.438-7.864-1.342l1.327,8.287c5.612,0.4,11.849,1.253,12.949,8.125
						C506.174,116.005,503.171,120.985,495.667,123.136z M487.345,102.372l-1.11-6.92c-2.488,0.998-3.285,2.576-3.028,4.185
						C483.48,101.341,485.09,102.034,487.345,102.372z M497.61,112.777c-0.274-1.708-1.835-2.406-4.049-2.803l1.077,6.727
						C496.99,115.775,497.859,114.337,497.61,112.777z"/>
				</g>
			</g>
		</g>
	</g>
	<g>
		<g>
			<g>
				
					<ellipse transform="matrix(0.9896 -0.1438 0.1438 0.9896 -33.6814 22.4753)" fill="#F5F5F5" cx="138.623" cy="244.214" rx="23.993" ry="23.939"/>
			</g>
			<g>
				
					<ellipse transform="matrix(0.9896 -0.1438 0.1438 0.9896 -33.6812 22.4752)" fill="#EBEBEB" cx="138.623" cy="244.215" rx="18.285" ry="18.242"/>
			</g>
			<g>
				<g>
					<path fill="#E0E0E0" d="M156.63,241.018c-0.109,0.02-0.302-0.763-0.794-2.106c-0.499-1.334-1.335-3.247-2.894-5.242
						c-0.777-0.993-1.729-2.002-2.873-2.94c-1.151-0.926-2.482-1.793-3.996-2.47c-0.754-0.341-1.548-0.646-2.382-0.881
						c-0.832-0.24-1.696-0.438-2.589-0.55c-0.891-0.115-1.806-0.184-2.734-0.159c-0.929,0.022-1.868,0.111-2.809,0.271
						c-0.938,0.173-1.853,0.413-2.731,0.711c-0.88,0.298-1.716,0.677-2.513,1.091c-0.8,0.413-1.543,0.896-2.241,1.408
						c-0.702,0.508-1.342,1.068-1.934,1.647c-1.188,1.156-2.14,2.429-2.9,3.695c-0.751,1.273-1.297,2.549-1.686,3.75
						c-0.774,2.409-0.901,4.492-0.91,5.917c0,1.431,0.089,2.232-0.02,2.25c-0.081,0.016-0.354-0.755-0.524-2.221
						c-0.161-1.457-0.189-3.642,0.503-6.224c0.348-1.286,0.871-2.663,1.626-4.045c0.765-1.374,1.747-2.763,2.996-4.03
						c0.621-0.635,1.299-1.249,2.045-1.807c0.743-0.561,1.538-1.092,2.396-1.546c0.855-0.457,1.755-0.872,2.704-1.198
						c0.948-0.328,1.933-0.588,2.945-0.774c1.014-0.173,2.028-0.268,3.03-0.287c1.003-0.02,1.991,0.061,2.951,0.194
						c0.961,0.131,1.891,0.356,2.781,0.628c0.893,0.267,1.742,0.61,2.543,0.992c1.608,0.76,3.008,1.725,4.2,2.752
						c1.184,1.038,2.151,2.15,2.92,3.237c1.54,2.186,2.266,4.247,2.617,5.67C156.702,240.187,156.711,241.005,156.63,241.018z"/>
				</g>
			</g>
		</g>
		<g>
			<g>
				<g>
					<path fill="#E0E0E0" d="M142.238,254.709l0.504,3.145l-2.808,0.449l-0.49-3.06c-2.807,0.275-5.613-0.167-7.351-1.127
						l0.995-3.673c1.571,0.814,3.713,1.249,5.767,1.122l-0.751-4.69c-3.238-0.258-6.886-0.74-7.529-4.756
						c-0.477-2.977,1.276-5.877,5.631-7.093l-0.499-3.117l2.808-0.45l0.49,3.061c2.133-0.168,4.272,0.064,5.974,0.8l-0.85,3.679
						c-1.563-0.585-3.099-0.829-4.53-0.773l0.765,4.774c3.233,0.23,6.826,0.722,7.459,4.68
						C148.291,250.602,146.561,253.47,142.238,254.709z M137.443,242.748l-0.639-3.987c-1.434,0.575-1.893,1.484-1.745,2.411
						C135.217,242.154,136.145,242.553,137.443,242.748z M143.357,248.742c-0.158-0.983-1.057-1.386-2.333-1.615l0.621,3.875
						C143,250.469,143.5,249.64,143.357,248.742z"/>
				</g>
			</g>
		</g>
	</g>
	<g>
		<g>
			<g>
				
					<ellipse transform="matrix(0.5334 0.8459 -0.8459 0.5334 200.4989 -13.9895)" fill="#F5F5F5" cx="112.929" cy="174.735" rx="15.611" ry="15.575"/>
			</g>
			<g>
				
					<ellipse transform="matrix(0.5334 0.8459 -0.8459 0.5334 200.4974 -13.99)" fill="#EBEBEB" cx="112.929" cy="174.735" rx="11.896" ry="11.869"/>
			</g>
			<g>
				<g>
					<path fill="#E0E0E0" d="M119.588,184.597c-0.041-0.06,0.374-0.381,1.042-1.029c0.662-0.649,1.578-1.652,2.353-3.105
						c0.385-0.725,0.733-1.557,0.988-2.485c0.247-0.929,0.41-1.95,0.413-3.028c0.003-0.539-0.025-1.091-0.106-1.649
						c-0.077-0.558-0.188-1.124-0.357-1.684c-0.167-0.56-0.368-1.122-0.628-1.668c-0.258-0.546-0.56-1.081-0.904-1.598
						c-0.351-0.512-0.735-0.992-1.145-1.436c-0.41-0.445-0.855-0.841-1.313-1.206c-0.457-0.366-0.94-0.68-1.429-0.96
						c-0.487-0.283-0.989-0.516-1.49-0.714c-1.001-0.401-2.009-0.63-2.963-0.748c-0.956-0.11-1.858-0.098-2.674-0.011
						c-1.637,0.176-2.909,0.651-3.758,1.022c-0.85,0.378-1.303,0.643-1.343,0.583c-0.031-0.044,0.356-0.41,1.182-0.899
						c0.824-0.48,2.115-1.075,3.833-1.345c0.856-0.133,1.813-0.186,2.834-0.102c1.02,0.092,2.104,0.308,3.188,0.716
						c0.542,0.202,1.086,0.442,1.615,0.739c0.53,0.293,1.056,0.626,1.553,1.016c0.498,0.388,0.982,0.813,1.427,1.291
						c0.445,0.477,0.86,0.994,1.238,1.546c0.371,0.558,0.695,1.136,0.971,1.727c0.277,0.591,0.49,1.199,0.664,1.805
						c0.176,0.606,0.288,1.218,0.362,1.819c0.078,0.602,0.098,1.196,0.083,1.774c-0.027,1.157-0.231,2.244-0.526,3.225
						c-0.304,0.978-0.71,1.847-1.153,2.591c-0.893,1.493-1.926,2.469-2.679,3.054C120.102,184.42,119.618,184.641,119.588,184.597z"
						/>
				</g>
			</g>
		</g>
		<g>
			<g>
				<g>
					<path fill="#E0E0E0" d="M107.645,179.658l-1.737,1.131l-1.009-1.551l1.69-1.1c-0.906-1.596-1.385-3.381-1.272-4.668
						l2.447-0.379c-0.069,1.149,0.239,2.537,0.857,3.725l2.59-1.686c-0.702-1.993-1.38-4.289,0.837-5.732
						c1.644-1.07,3.832-0.794,5.706,1.474l1.721-1.121l1.01,1.551l-1.691,1.1c0.664,1.224,1.091,2.557,1.104,3.763l-2.412,0.466
						c-0.065-1.083-0.326-2.061-0.738-2.897l-2.636,1.716c0.718,1.983,1.375,4.249-0.811,5.671
						C111.687,182.171,109.524,181.901,107.645,179.658z M113.49,173.647l2.201-1.434c-0.721-0.701-1.382-0.733-1.894-0.4
						C113.254,172.166,113.262,172.823,113.49,173.647z M111.489,178.747c0.543-0.354,0.544-0.995,0.343-1.813l-2.14,1.393
						C110.367,178.991,110.992,179.069,111.489,178.747z"/>
				</g>
			</g>
		</g>
	</g>
	<g>
		<g>
			<g>
				
					<ellipse transform="matrix(0.5334 0.8459 -0.8459 0.5334 286.9366 -428.2694)" fill="#F5F5F5" cx="531.641" cy="45.938" rx="15.61" ry="15.575"/>
			</g>
			<g>
				
					<ellipse transform="matrix(0.5334 0.8459 -0.8459 0.5334 286.9265 -428.2639)" fill="#EBEBEB" cx="531.641" cy="45.938" rx="11.896" ry="11.869"/>
			</g>
			<g>
				<g>
					<path fill="#E0E0E0" d="M538.299,55.799c-0.041-0.06,0.374-0.381,1.043-1.029c0.661-0.649,1.577-1.652,2.352-3.105
						c0.386-0.725,0.733-1.557,0.989-2.485c0.246-0.929,0.41-1.95,0.412-3.028c0.003-0.539-0.025-1.092-0.106-1.649
						c-0.077-0.558-0.188-1.124-0.356-1.684c-0.167-0.56-0.368-1.122-0.628-1.668c-0.259-0.546-0.56-1.081-0.904-1.598
						c-0.351-0.512-0.734-0.992-1.144-1.436c-0.41-0.445-0.856-0.841-1.313-1.206c-0.457-0.366-0.94-0.68-1.429-0.96
						c-0.487-0.283-0.99-0.516-1.49-0.714c-1.002-0.4-2.01-0.63-2.964-0.748c-0.955-0.11-1.857-0.098-2.674-0.011
						c-1.637,0.176-2.909,0.651-3.759,1.022c-0.85,0.378-1.303,0.643-1.343,0.583c-0.031-0.043,0.355-0.41,1.182-0.898
						c0.824-0.48,2.116-1.075,3.834-1.345c0.855-0.133,1.813-0.186,2.834-0.102c1.02,0.092,2.104,0.308,3.188,0.716
						c0.542,0.202,1.086,0.442,1.615,0.739c0.53,0.293,1.056,0.626,1.552,1.015c0.498,0.388,0.982,0.813,1.427,1.291
						c0.445,0.477,0.86,0.994,1.238,1.546c0.372,0.558,0.695,1.135,0.972,1.726s0.49,1.199,0.664,1.806
						c0.176,0.606,0.288,1.218,0.362,1.819c0.077,0.601,0.097,1.196,0.082,1.774c-0.027,1.157-0.23,2.244-0.526,3.225
						c-0.305,0.978-0.71,1.847-1.153,2.591c-0.893,1.493-1.926,2.469-2.68,3.054C538.813,55.622,538.329,55.843,538.299,55.799z"/>
				</g>
			</g>
		</g>
		<g>
			<g>
				<g>
					<path fill="#E0E0E0" d="M526.356,50.86l-1.736,1.131l-1.009-1.551l1.689-1.1c-0.905-1.596-1.384-3.381-1.272-4.668l2.447-0.379
						c-0.069,1.149,0.238,2.538,0.857,3.725l2.589-1.686c-0.702-1.993-1.38-4.29,0.838-5.733c1.644-1.069,3.832-0.794,5.705,1.474
						l1.722-1.121l1.01,1.551l-1.69,1.1c0.663,1.224,1.091,2.557,1.103,3.763l-2.412,0.466c-0.064-1.083-0.326-2.061-0.737-2.897
						l-2.636,1.716c0.717,1.983,1.374,4.249-0.812,5.671C530.398,53.373,528.236,53.103,526.356,50.86z M532.201,44.849l2.202-1.434
						c-0.722-0.7-1.383-0.733-1.895-0.4C531.965,43.368,531.973,44.025,532.201,44.849z M530.2,49.949
						c0.543-0.354,0.545-0.995,0.344-1.813l-2.14,1.393C529.079,50.193,529.704,50.271,530.2,49.949z"/>
				</g>
			</g>
		</g>
	</g>
</g>
<g id="Background_Simple" display="none">
	<path display="inline" fill="#EBEBEB" d="M625.61,39.19C576.964,8.078,508.514,9.022,463.462,45.143
		c-36.157,28.989-56.316,76.935-97.873,97.448c-53.184,26.253-117.887-3.088-175.828,9.587
		c-48.356,10.579-88.039,53.104-95.255,102.074c-7.215,48.971,24.861,104.475,68.111,128.551l0,0
		c55.939,30.415,114.208,38.78,177.879,38.214c78.872-0.701,159.868-10.533,229.301-47.957
		c69.433-37.423,125.53-106.922,129.297-185.708C701.853,129.674,674.255,70.303,625.61,39.19z"/>
</g>
<g id="Floor">
	<g>
		<g>
			<line fill="#263238" x1="39.742" y1="470.358" x2="710.258" y2="470.358"/>
		</g>
		<g>
			<g>
				<path fill="#263238" d="M710.258,470.358c0,0.145-150.112,0.261-335.242,0.261c-185.194,0-335.274-0.116-335.274-0.261
					c0-0.144,150.08-0.26,335.274-0.26C560.146,470.098,710.258,470.214,710.258,470.358z"/>
			</g>
		</g>
	</g>
</g>
<g id="Device">
	<g>
		<g>
			<g>
				<g>
					<g>
						<g>
							<path fill="#263238" d="M669,134.645H288.281c-6.564,0-11.884,5.32-11.884,11.883v268.91c0,6.564,5.32,11.885,11.884,11.885
								h146.12c0,0,9.294,28.742-19.52,43.614h136.63c0,0-32.532-11.153-24.167-43.614h141.657c6.563,0,11.884-5.32,11.884-11.883
								V146.529C680.885,139.965,675.564,134.645,669,134.645z"/>
						</g>
					</g>
				</g>
				<g>
					<g>
						<g>
							<path fill="#455A64" d="M483.724,399.042c5.179,7.402-2.927,15.508-10.33,10.33c-0.244-0.172-0.466-0.394-0.637-0.638
								c-5.164-7.4,2.931-15.495,10.33-10.329C483.332,398.576,483.553,398.797,483.724,399.042z"/>
						</g>
					</g>
				</g>
			</g>
			<g>
				<path fill="#FFFFFF" d="M674.33,378.127H282.952V149.268c0-5.355,4.342-9.697,9.698-9.697h371.982
					c5.355,0,9.697,4.342,9.697,9.697V378.127z"/>
			</g>
		</g>
		<g>
			<g>
				<g>
					<rect x="316.111" y="193.425" fill="#C62828" width="12.836" height="143.357"/>
				</g>
			</g>
			<g>
				<g>
					<rect x="340.893" y="242.114" fill="#C62828" width="12.836" height="94.667"/>
				</g>
			</g>
			<g>
				<g>
					<rect x="365.675" y="211.244" fill="#C62828" width="12.836" height="126.267"/>
				</g>
			</g>
			<g>
				<g>
					<rect x="390.457" y="198.961" fill="#C62828" width="12.837" height="137.821"/>
				</g>
			</g>
			<g>
				<g>
					<rect x="415.238" y="245.029" fill="#C62828" width="12.837" height="91.753"/>
				</g>
			</g>
			<g>
				<g>
					<rect x="440.02" y="263.023" fill="#C62828" width="12.837" height="73.759"/>
				</g>
			</g>
			<g>
				<g>
					<rect x="464.801" y="208.139" fill="#C62828" width="12.837" height="128.643"/>
				</g>
			</g>
			<g>
				<g>
					<rect x="489.583" y="231.332" fill="#C62828" width="12.837" height="105.45"/>
				</g>
			</g>
			<g>
				<g>
					<rect x="514.365" y="212.799" fill="#C62828" width="12.837" height="123.983"/>
				</g>
			</g>
			<g>
				<g>
					<rect x="539.147" y="252.314" fill="#C62828" width="12.837" height="84.468"/>
				</g>
			</g>
			<g>
				<g>
					<rect x="588.577" y="208.139" fill="#C62828" width="12.837" height="128.643"/>
				</g>
			</g>
			<g>
				<g>
					<rect x="641.208" y="290.905" fill="#C62828" width="12.837" height="44.018"/>
				</g>
			</g>
			<g>
				<g>
					<rect x="615.551" y="252.314" fill="#C62828" width="12.837" height="84.468"/>
				</g>
			</g>
			<g>
				<g>
					<rect x="563.928" y="236.241" fill="#C62828" width="12.837" height="100.541"/>
				</g>
			</g>
			<g>
				<g>
					<g>
						<path fill="#263238" d="M657.654,211.7c-0.007,0.024-0.389-0.038-1.127-0.181c-0.803-0.165-1.884-0.386-3.266-0.67
							c-1.422-0.358-3.223-0.573-5.344-0.849c-2.112-0.359-4.579-0.474-7.352-0.614c-5.538-0.149-12.372,0.093-20.093,1.727
							c-7.698,1.641-16.283,4.573-24.928,9.437c-8.641,4.834-17.369,11.504-25.241,20.098c-7.867,8.621-14.498,19.269-21.276,30.542
							c-6.849,11.201-13.815,23.37-23.906,33.79c-5.001,5.191-10.834,9.894-17.616,13.175c-3.388,1.631-7.061,2.783-10.856,3.318
							c-3.799,0.528-7.705,0.354-11.514-0.389c-7.614-1.682-14.37-5.681-20.048-10.514c-5.757-4.796-10.545-10.439-14.85-16.207
							c-8.615-11.601-14.74-24.106-21.292-35.496c-6.466-11.428-13.119-22.112-21.267-30.454c-4.059-4.153-8.439-7.739-13.15-10.342
							c-2.263-1.473-4.771-2.359-7.104-3.45c-2.46-0.774-4.812-1.731-7.252-2.147c-9.643-2.257-18.831-1.409-26.356,0.737
							c-7.581,2.126-13.557,5.531-18.088,8.698c-4.436,3.328-7.553,6.34-9.5,8.517c-0.936,1.054-1.668,1.88-2.211,2.492
							c-0.505,0.557-0.774,0.835-0.793,0.82s0.21-0.324,0.679-0.913c0.519-0.637,1.217-1.495,2.11-2.593
							c1.887-2.249,4.959-5.347,9.386-8.775c4.523-3.267,10.528-6.788,18.198-9.02c7.612-2.25,16.951-3.191,26.798-0.956
							c9.869,1.966,19.923,7.636,28.137,16.098c8.311,8.437,15.051,19.193,21.565,30.632c6.6,11.406,12.74,23.862,21.271,35.313
							c4.265,5.699,8.999,11.262,14.639,15.951c5.565,4.733,12.127,8.59,19.426,10.202c3.65,0.709,7.381,0.877,11.018,0.374
							c3.633-0.512,7.165-1.613,10.445-3.19c6.567-3.172,12.29-7.759,17.218-12.864c9.942-10.232,16.903-22.304,23.784-33.495
							c6.811-11.255,13.524-21.964,21.527-30.658c8.001-8.658,16.865-15.356,25.631-20.185c8.77-4.859,17.469-7.752,25.255-9.333
							c7.81-1.574,14.707-1.735,20.28-1.499c2.79,0.184,5.268,0.344,7.385,0.749c2.127,0.322,3.928,0.583,5.345,0.989
							c1.373,0.343,2.446,0.611,3.243,0.811C657.291,211.567,657.66,211.676,657.654,211.7z"/>
					</g>
				</g>
			</g>
			<g>
				<g>
					<g>
						<path fill="#263238" d="M301.981,346.766c-0.291,0-0.527-40.878-0.527-91.293c0-50.433,0.236-91.303,0.527-91.303
							c0.292,0,0.527,40.87,0.527,91.303C302.509,305.888,302.273,346.766,301.981,346.766z"/>
					</g>
				</g>
			</g>
			<g>
				<g>
					<g>
						<path fill="#263238" d="M654.044,346.766c0,0.292-77.016,0.527-171.997,0.527c-95.015,0-172.014-0.235-172.014-0.527
							c0-0.291,77-0.527,172.014-0.527C577.029,346.239,654.044,346.475,654.044,346.766z"/>
					</g>
				</g>
			</g>
			<g>
				<g>
					<g>
						<ellipse fill="#263238" cx="324.895" cy="358.05" rx="9.526" ry="0.527"/>
					</g>
				</g>
			</g>
			<g>
				<g>
					<g>
						<ellipse fill="#263238" cx="354.635" cy="358.625" rx="11.385" ry="0.527"/>
					</g>
				</g>
			</g>
			<g>
				<g>
					<g>
						<ellipse fill="#263238" cx="381.586" cy="358.625" rx="11.385" ry="0.527"/>
					</g>
				</g>
			</g>
			<g>
				<g>
					<g>
						<ellipse fill="#263238" cx="408.538" cy="358.625" rx="11.385" ry="0.527"/>
					</g>
				</g>
			</g>
			<g>
				<g>
					<g>
						<ellipse fill="#263238" cx="435.489" cy="358.625" rx="11.385" ry="0.527"/>
					</g>
				</g>
			</g>
			<g>
				<g>
					<g>
						<ellipse fill="#263238" cx="462.44" cy="358.625" rx="11.384" ry="0.527"/>
					</g>
				</g>
			</g>
			<g>
				<g>
					<g>
						<ellipse fill="#263238" cx="489.392" cy="358.625" rx="11.384" ry="0.527"/>
					</g>
				</g>
			</g>
			<g>
				<g>
					<g>
						<ellipse fill="#263238" cx="516.343" cy="358.625" rx="11.385" ry="0.527"/>
					</g>
				</g>
			</g>
			<g>
				<g>
					<g>
						<ellipse fill="#263238" cx="543.295" cy="358.625" rx="11.384" ry="0.527"/>
					</g>
				</g>
			</g>
			<g>
				<g>
					<g>
						<ellipse fill="#263238" cx="570.246" cy="358.625" rx="11.385" ry="0.527"/>
					</g>
				</g>
			</g>
			<g>
				<g>
					<g>
						<ellipse fill="#263238" cx="595.313" cy="358.634" rx="11.385" ry="0.527"/>
					</g>
				</g>
			</g>
			<g>
				<g>
					<g>
						<ellipse fill="#263238" cx="620.38" cy="358.643" rx="11.385" ry="0.527"/>
					</g>
				</g>
			</g>
			<g>
				<g>
					<g>
						<ellipse fill="#263238" cx="645.447" cy="358.652" rx="11.384" ry="0.528"/>
					</g>
				</g>
			</g>
			<g>
				<g>
					<g>
						<path fill="#263238" d="M433.002,260.167c0.011-0.22,1.574,0.329,2.075,2.481c0.23,1.013,0.312,2.343-0.397,3.699
							c-0.346,0.665-0.995,1.317-1.87,1.581c-0.87,0.285-1.829,0.105-2.608-0.309c-1.574-0.861-2.36-2.607-2.229-4.091
							c0.107-1.503,0.921-2.661,1.788-3.306c0.874-0.673,1.871-0.77,2.453-0.605c0.595,0.179,0.799,0.467,0.757,0.53
							c-0.062,0.197-1.303-0.396-2.559,0.854c-0.589,0.576-1.109,1.516-1.117,2.581c-0.032,1.052,0.562,2.205,1.59,2.772
							c1.048,0.577,2.131,0.235,2.651-0.672c0.55-0.89,0.628-2.002,0.543-2.854C433.913,261.026,432.891,260.34,433.002,260.167z"/>
					</g>
				</g>
			</g>
			<g>
				<g>
					<g>
						<path fill="#263238" d="M601.944,213.041c-0.004-0.08,0.403-0.213,1.112,0c0.703,0.203,1.622,0.858,2.291,1.983
							c0.657,1.104,1.091,2.755,0.566,4.5c-0.5,1.66-2.029,3.506-4.392,3.51c-1.171-0.017-2.182-0.698-2.796-1.459
							c-0.62-0.779-0.997-1.645-1.181-2.497c-0.394-1.696-0.031-3.386,0.724-4.465c1.578-2.236,3.533-2.121,3.461-1.957
							c0.094,0.209-1.54,0.524-2.588,2.475c-0.512,0.945-0.687,2.257-0.312,3.63c0.339,1.321,1.354,2.827,2.735,2.836
							c1.406,0.039,2.672-1.229,3.091-2.487c0.459-1.286,0.238-2.64-0.209-3.616C603.52,213.421,601.896,213.227,601.944,213.041z"
							/>
					</g>
				</g>
			</g>
		</g>
		<g>
			<g>
				<g>
					<g>
						<g>
							<g>
								<rect x="198.683" y="66.812" fill="#FFFFFF" width="257.61" height="200.491"/>
							</g>
						</g>
						<g>
							<g>
								<g>
									<path fill="#263238" d="M456.293,267.303c-0.003-2.001-0.096-79.501-0.241-200.491l0.241,0.241
										c-73.312,0.014-162.036,0.031-257.588,0.05h-0.022l0.291-0.291c-0.01,72.268-0.021,140.622-0.029,200.49l-0.262-0.261
										C351.562,267.197,453.996,267.3,456.293,267.303c-2.296,0.002-104.731,0.106-257.61,0.262h-0.262v-0.263
										c-0.009-59.869-0.019-128.222-0.029-200.49v-0.292h0.291h0.022c95.552,0.019,184.277,0.036,257.588,0.05h0.241
										l-0.001,0.241C456.389,187.802,456.295,265.303,456.293,267.303z"/>
								</g>
							</g>
						</g>
					</g>
					<g>
						<g>
							<g>
								<rect x="211.248" y="93.152" fill="#263238" width="41.703" height="2.32"/>
							</g>
						</g>
						<g>
							<g>
								<rect x="211.248" y="98.583" fill="#263238" width="20.608" height="2.32"/>
							</g>
						</g>
						<g>
							<g>
								<g>
									<rect x="235.024" y="238.495" fill="#263238" width="7.554" height="2.177"/>
								</g>
								<g>
									<rect x="252.114" y="250.132" fill="#263238" width="9.66" height="2.177"/>
								</g>
								<g>
									<rect x="285.743" y="250.132" fill="#263238" width="9.661" height="2.177"/>
								</g>
								<g>
									<rect x="319.373" y="250.132" fill="#263238" width="9.66" height="2.177"/>
								</g>
								<g>
									<rect x="353.002" y="250.132" fill="#263238" width="9.661" height="2.177"/>
								</g>
								<g>
									<rect x="386.632" y="250.132" fill="#263238" width="9.66" height="2.177"/>
								</g>
								<g>
									<rect x="420.262" y="250.132" fill="#263238" width="9.66" height="2.177"/>
								</g>
								<g>
									<rect x="235.024" y="209.421" fill="#263238" width="7.554" height="2.177"/>
								</g>
								<g>
									<rect x="235.024" y="154.702" fill="#263238" width="7.554" height="2.177"/>
								</g>
								<g>
									<rect x="235.024" y="127.204" fill="#263238" width="7.554" height="2.177"/>
								</g>
								<g>
									<rect x="235.407" y="182.062" fill="#263238" width="7.554" height="2.176"/>
								</g>
								<g>
									<g>
										<path fill="#263238" d="M429.651,240.671c0,0-0.273,0.018-0.81,0.027c-0.551,0.006-1.343,0.015-2.377,0.026
											c-2.105,0.011-5.182,0.028-9.141,0.049c-7.952,0.02-19.433,0.048-33.616,0.083c-28.397,0.02-67.604,0.046-110.907,0.076
											c-9.003-0.001-17.829-0.002-26.282-0.004h-0.257l0-0.257c0.035-37.092,0.065-69.732,0.087-93.116
											c0.033-11.676,0.06-21.037,0.078-27.497c0.019-3.212,0.034-5.7,0.044-7.402c0.01-0.833,0.018-1.471,0.023-1.917
											c0.008-0.431,0.024-0.651,0.024-0.651s0.016,0.22,0.024,0.651c0.005,0.446,0.013,1.083,0.023,1.917
											c0.01,1.702,0.025,4.189,0.044,7.402c0.018,6.46,0.044,15.821,0.077,27.497c0.022,23.384,0.053,56.024,0.088,93.116
											l-0.256-0.256c8.453-0.001,17.279-0.002,26.282-0.004c43.303,0.03,82.509,0.057,110.907,0.076
											c14.184,0.035,25.664,0.063,33.616,0.083c3.959,0.021,7.035,0.038,9.141,0.049c1.034,0.011,1.826,0.02,2.377,0.026
											C429.377,240.654,429.651,240.671,429.651,240.671z"/>
									</g>
								</g>
								<g>
									<g>
										<path fill="#263238" d="M431.779,183.15c0,0.144-39.839,0.261-88.972,0.261c-49.15,0-88.981-0.117-88.981-0.261
											c0-0.144,39.831-0.26,88.981-0.26C391.94,182.89,431.779,183.006,431.779,183.15z"/>
									</g>
								</g>
								<g>
									<g>
										<path fill="#263238" d="M431.779,155.791c0,0.144-39.839,0.26-88.972,0.26c-49.15,0-88.981-0.116-88.981-0.26
											c0-0.144,39.831-0.26,88.981-0.26C391.94,155.53,431.779,155.647,431.779,155.791z"/>
									</g>
								</g>
								<g>
									<g>
										<path fill="#263238" d="M431.779,128.292c0,0.144-39.839,0.26-88.972,0.26c-49.15,0-88.981-0.116-88.981-0.26
											c0-0.144,39.831-0.26,88.981-0.26C391.94,128.032,431.779,128.148,431.779,128.292z"/>
									</g>
								</g>
								<g>
									<g>
										<path fill="#263238" d="M431.779,210.51c0,0.144-39.839,0.26-88.972,0.26c-49.15,0-88.981-0.116-88.981-0.26
											s39.831-0.26,88.981-0.26C391.94,210.25,431.779,210.366,431.779,210.51z"/>
									</g>
								</g>
								<g>
									<path fill="#455A64" d="M255.66,234.784c0-4.581,0-24.274,0-24.274l15.129-23.488l10.267,7.877l21.074-32.734l12.428,8.752
										l17.292-30.198l14.049,11.445l21.074-40.059l22.694,44.773l18.372-22.402l21.613-6.185v106.492H255.66z"/>
								</g>
							</g>
							<g>
								<g>
									<path fill="#263238" d="M431.779,119.673c0,0-0.128,0.013-0.381,0.02c-0.269,0.004-0.642,0.011-1.126,0.02
										c-1.012,0.008-2.479,0.021-4.387,0.038c-3.855,0.016-9.469,0.039-16.585,0.067l0.114-0.056
										c-4.833,6.308-10.857,14.17-17.789,23.216l-0.062,0.081h-0.102c-12.912,0.013-28.046,0.028-44.498,0.044l0.215-0.122
										c-5.857,9.749-12.177,20.268-18.711,31.144c-6.372,10.593-12.54,20.847-18.365,30.53l-0.195,0.325l-0.223-0.306
										c-8.795-12.086-16.929-23.262-24.114-33.136l0.351-0.011c-9.148,14.278-16.693,26.054-21.96,34.275
										c-2.635,4.086-4.698,7.286-6.114,9.482c-0.702,1.077-1.242,1.903-1.617,2.478c-0.368,0.558-0.571,0.836-0.571,0.836
										s0.167-0.302,0.517-0.871c0.363-0.583,0.885-1.42,1.564-2.511c1.394-2.21,3.424-5.432,6.017-9.544
										c5.23-8.245,12.723-20.054,21.807-34.374l0.167-0.263l0.184,0.252c7.204,9.86,15.358,21.021,24.176,33.09l-0.417,0.019
										c5.819-9.686,11.982-19.943,18.348-30.54c6.54-10.872,12.865-21.387,18.728-31.133l0.073-0.122h0.142
										c16.452,0.017,31.586,0.032,44.498,0.044l-0.163,0.081c6.969-9.017,13.026-16.854,17.887-23.142l0.044-0.057l0.07,0
										c7.116,0.029,12.729,0.052,16.585,0.068c1.907,0.016,3.375,0.029,4.387,0.038c0.484,0.008,0.857,0.015,1.126,0.019
										C431.651,119.66,431.779,119.673,431.779,119.673z"/>
								</g>
							</g>
							<g>
								<ellipse fill="#263238" cx="291.33" cy="179.193" rx="1.707" ry="1.644"/>
							</g>
							<g>
								<ellipse fill="#263238" cx="342.656" cy="150.021" rx="1.707" ry="1.644"/>
							</g>
							<g>
								<ellipse fill="#263238" cx="382.556" cy="142.853" rx="1.707" ry="1.644"/>
							</g>
						</g>
					</g>
				</g>
				<g>
					<g>
						<circle fill="#263238" cx="207.464" cy="75.063" r="1.983"/>
					</g>
					<g>
						<circle fill="#263238" cx="213.231" cy="75.063" r="1.983"/>
					</g>
					<g>
						<circle fill="#263238" cx="218.999" cy="75.063" r="1.983"/>
					</g>
				</g>
				<g>
					<g>
						<line fill="#263238" x1="198.971" y1="82.869" x2="456.078" y2="82.869"/>
					</g>
					<g>
						<g>
							<path fill="#263238" d="M456.078,82.869c0,0.144-57.56,0.261-128.547,0.261c-71.012,0-128.56-0.117-128.56-0.261
								c0-0.144,57.548-0.26,128.56-0.26C398.518,82.608,456.078,82.725,456.078,82.869z"/>
						</g>
					</g>
				</g>
			</g>
		</g>
	</g>
</g>
<g id="Money_Box">
	<g>
		<g>
			<g>
				<g>
					<g>
						<path fill="#C62828" d="M39.919,386.565l5.408,19.39c3.053,10.948,13.836,17.86,25.059,16.064l0,0
							c0,0,10.244,14.578,14.578,16.942l3.94,31.125h23.368l1.848-12.608c0,0,23.569,11.032,53.153,9.456
							s36.676-10.244,36.676-10.244l3.546,13.396h26.397l4.334-34.277c0,0,32.307-28.762,24.033-62.25
							c0,0,23.245-15.868,15.365-38.469l-4.728-2.112c0,0-7.486,13.396-15.366,16.153c0,0-21.205-68.16-101.023-62.644
							c0,0-26.629-1.183-51.845,10.638c0,0-27.973-14.578-48.854-3.94c0,0-0.394,24.033,11.426,37.823
							c0,0-10.244,22.852-11.032,27.579l-3.056,1.223C42.556,364.046,36.855,375.578,39.919,386.565z"/>
					</g>
					<g>
						<circle fill="#263238" cx="89.839" cy="357.293" r="6.53"/>
					</g>
					<g opacity="0.6">
						<path d="M126.448,303.81l2.935,8.217c0,0,35.509-10.564,58.399,0l3.228-8.217C191.01,303.81,163.131,290.898,126.448,303.81z"
							/>
					</g>
				</g>
				<g>
					<g>
						<path fill="#263238" d="M193.892,315.8c-0.01,0.015-0.236-0.117-0.656-0.38c-0.417-0.269-1.042-0.645-1.855-1.114
							c-1.632-0.927-4.062-2.166-7.229-3.277c-3.162-1.117-7.058-2.087-11.46-2.64c-4.402-0.562-9.295-0.708-14.419-0.541
							c-5.126,0.186-10.014,0.505-14.41,1.126c-4.397,0.608-8.302,1.538-11.459,2.668c-3.167,1.108-5.583,2.381-7.183,3.357
							c-1.609,0.968-2.432,1.612-2.468,1.563c-0.011-0.014,0.19-0.179,0.585-0.48c0.397-0.299,0.971-0.758,1.775-1.253
							c1.576-1.036,3.987-2.371,7.166-3.533c3.168-1.185,7.097-2.158,11.517-2.796c4.421-0.651,9.318-0.986,14.462-1.172
							c5.143-0.168,10.066-0.007,14.497,0.585c4.432,0.583,8.353,1.6,11.523,2.77c3.177,1.165,5.6,2.464,7.208,3.45
							c0.802,0.498,1.413,0.904,1.811,1.201C193.697,315.625,193.902,315.786,193.892,315.8z"/>
					</g>
				</g>
				<g opacity="0.2">
					<g>
						<path d="M54.858,377.927c-0.436-0.987-0.931-1.987-1.751-2.689c-0.82-0.701-2.046-1.034-3.001-0.532l0,0
							c-0.756,0.604-1.282,1.45-1.493,2.395c-1.316,5.875-0.294,12.261,2.882,17.39c0.451,0.729,1.183,1.28,2.027,1.425
							c1.791,0.306,2.728-1.328,3.168-2.806C58.178,388.121,56.959,382.691,54.858,377.927z"/>
					</g>
				</g>
				<g>
					<g>
						<path fill="#263238" d="M69.198,393.964c-0.036-0.004-0.025-0.538,0.025-1.498c0.032-0.479,0.062-1.065,0.048-1.748
							c-0.007-0.682,0.029-1.458-0.04-2.313c-0.04-0.856-0.088-1.794-0.223-2.793c-0.084-1.005-0.288-2.063-0.475-3.178
							c-0.447-2.219-1.093-4.628-2.017-7.071c-0.95-2.436-2.083-4.658-3.236-6.605c-0.608-0.954-1.166-1.876-1.775-2.679
							c-0.569-0.832-1.161-1.562-1.705-2.224c-0.521-0.683-1.067-1.234-1.519-1.745c-0.447-0.517-0.862-0.932-1.207-1.267
							c-0.679-0.68-1.045-1.069-1.021-1.097c0.024-0.026,0.435,0.312,1.161,0.95c0.368,0.313,0.807,0.711,1.277,1.212
							c0.475,0.495,1.045,1.035,1.59,1.708c0.567,0.654,1.181,1.377,1.772,2.207c0.631,0.801,1.208,1.725,1.835,2.684
							c1.19,1.957,2.351,4.202,3.313,6.668c0.936,2.476,1.576,4.92,2.002,7.17c0.176,1.132,0.366,2.204,0.433,3.222
							c0.117,1.013,0.145,1.961,0.161,2.826c0.046,0.864-0.016,1.647-0.037,2.334c-0.014,0.687-0.074,1.275-0.137,1.755
							C69.313,393.442,69.234,393.969,69.198,393.964z"/>
					</g>
				</g>
				<g>
					<g>
						<path fill="#263238" d="M76.373,380.02c-0.102,0.027-0.488-1.652-1.593-4.177c-0.542-1.266-1.318-2.714-2.291-4.248
							c-1.001-1.517-2.217-3.108-3.661-4.631c-1.461-1.506-3.002-2.786-4.476-3.85c-1.493-1.035-2.908-1.87-4.15-2.465
							c-2.476-1.209-4.139-1.663-4.107-1.765c0.01-0.034,0.427,0.065,1.177,0.276c0.377,0.101,0.833,0.237,1.347,0.444
							c0.516,0.2,1.117,0.399,1.741,0.711c1.278,0.56,2.734,1.373,4.267,2.404c1.513,1.059,3.09,2.351,4.577,3.883
							c1.469,1.549,2.694,3.178,3.689,4.733c0.966,1.573,1.719,3.062,2.225,4.362c0.286,0.637,0.46,1.245,0.639,1.769
							c0.185,0.522,0.304,0.984,0.388,1.364C76.325,379.59,76.408,380.011,76.373,380.02z"/>
					</g>
				</g>
			</g>
			<g>
				<g>
					<path fill="#263238" d="M49.164,377.036c-0.005,0.033-0.189-0.463,0.339-1.026c0.253-0.265,0.666-0.496,1.187-0.565
						c0.523-0.086,1.161,0.104,1.667,0.513c1.048,0.842,1.61,2.279,2.258,3.77c0.619,1.524,1.159,3.262,1.511,5.129
						c0.356,1.867,0.499,3.682,0.476,5.327c-0.032,1.621-0.088,3.186-0.79,4.319c-0.688,1.167-1.919,1.44-2.605,1.309
						c-0.735-0.142-0.958-0.56-0.937-0.553c0.032-0.05,0.299,0.289,0.963,0.352c0.628,0.059,1.702-0.245,2.262-1.294
						c0.593-1.028,0.626-2.523,0.628-4.135c-0.004-1.616-0.159-3.395-0.508-5.228c-0.346-1.833-0.861-3.541-1.445-5.049
						c-0.61-1.485-1.148-2.901-2.044-3.661c-0.896-0.819-2.021-0.504-2.482-0.086C49.139,376.596,49.224,377.054,49.164,377.036z"/>
				</g>
			</g>
			<g>
				<g>
					<path fill="#263238" d="M99.423,381.612c0.029-0.013,0.162,0.191,0.332,0.597c0.172,0.404,0.354,1.021,0.443,1.809
						c0.192,1.548-0.148,3.901-1.734,5.809c-1.602,1.896-3.86,2.641-5.417,2.723c-0.791,0.05-1.43-0.021-1.858-0.12
						c-0.429-0.098-0.653-0.192-0.646-0.223c0.017-0.097,0.961,0.165,2.467-0.023c1.48-0.17,3.569-0.933,5.054-2.691
						c1.472-1.769,1.857-3.958,1.766-5.445C99.754,382.529,99.331,381.645,99.423,381.612z"/>
				</g>
			</g>
			<g>
				<g>
					<path fill="#263238" d="M95.722,341.348c-0.066,0.158-2.745-1.391-6.442-1.677c-3.694-0.338-6.593,0.741-6.632,0.574
						c-0.021-0.056,0.666-0.401,1.866-0.712c1.195-0.313,2.917-0.538,4.811-0.382c1.892,0.163,3.552,0.673,4.678,1.182
						C95.132,340.841,95.752,341.297,95.722,341.348z"/>
				</g>
			</g>
		</g>
		<g>
			<g>
				<path fill="#FFFFFF" d="M205.834,298.203c-0.004,0.009-0.091-0.019-0.256-0.079c-0.193-0.073-0.433-0.165-0.73-0.279
					c-0.673-0.271-1.604-0.645-2.783-1.119c-0.606-0.247-1.276-0.521-2.005-0.819c-0.74-0.281-1.562-0.541-2.434-0.847
					c-1.755-0.581-3.719-1.347-5.977-1.918c-1.121-0.314-2.294-0.644-3.516-0.986c-1.224-0.335-2.526-0.571-3.858-0.879
					c-2.658-0.655-5.554-1.06-8.589-1.552c-6.096-0.793-12.856-1.241-19.952-1.019c-7.096,0.297-13.807,1.239-19.83,2.476
					c-2.99,0.713-5.85,1.328-8.453,2.177c-1.306,0.404-2.587,0.734-3.784,1.158c-1.193,0.432-2.339,0.846-3.434,1.241
					c-2.21,0.735-4.113,1.642-5.82,2.351c-0.848,0.368-1.648,0.688-2.366,1.021c-0.706,0.352-1.354,0.673-1.94,0.965
					c-1.141,0.559-2.042,1-2.693,1.319c-0.288,0.135-0.521,0.244-0.708,0.331c-0.161,0.072-0.245,0.105-0.25,0.098
					s0.072-0.057,0.224-0.144c0.18-0.1,0.405-0.225,0.683-0.378c0.642-0.341,1.529-0.812,2.653-1.408
					c0.582-0.305,1.224-0.641,1.924-1.007c0.713-0.349,1.509-0.682,2.354-1.064c1.701-0.735,3.6-1.669,5.809-2.429
					c1.095-0.407,2.242-0.833,3.435-1.276c1.197-0.437,2.48-0.777,3.789-1.192c2.608-0.869,5.475-1.503,8.476-2.232
					c6.042-1.268,12.784-2.229,19.912-2.526c7.128-0.224,13.92,0.241,20.038,1.063c3.045,0.508,5.951,0.93,8.615,1.606
					c1.335,0.317,2.64,0.564,3.866,0.911c1.223,0.354,2.397,0.696,3.519,1.021c2.259,0.597,4.222,1.389,5.972,1.998
					c0.87,0.319,1.688,0.594,2.425,0.889c0.725,0.314,1.39,0.603,1.993,0.863c1.165,0.514,2.083,0.918,2.749,1.211
					c0.289,0.133,0.522,0.24,0.709,0.327C205.759,298.152,205.838,298.195,205.834,298.203z"/>
			</g>
		</g>
		<g>
			<g>
				
					<ellipse transform="matrix(0.9231 0.3846 -0.3846 0.9231 133.2696 -59.2203)" fill="#FFFFFF" cx="214.686" cy="303.564" rx="3.288" ry="0.26"/>
			</g>
		</g>
		<g>
			<g>
				<path fill="#FFFFFF" d="M51.501,364.915c0.035,0.086-0.914,0.468-2.29,1.337c-1.377,0.863-3.141,2.295-4.654,4.26
					c-1.505,1.973-2.43,4.048-2.905,5.602c-0.483,1.555-0.604,2.57-0.697,2.559c-0.036-0.004-0.033-0.26,0.003-0.723
					c0.027-0.464,0.139-1.13,0.339-1.937c0.395-1.614,1.294-3.785,2.846-5.818c1.56-2.025,3.422-3.458,4.879-4.258
					c0.727-0.403,1.341-0.685,1.782-0.831C51.242,364.951,51.488,364.881,51.501,364.915z"/>
			</g>
		</g>
		<g>
			<g>
				<path fill="#263238" d="M112.929,464.293c-0.033,0.023-0.175-0.244-0.597-0.565c-0.416-0.315-1.179-0.63-2.164-0.524
					c-0.973,0.092-2.138,0.631-2.845,1.819c-0.73,1.154-1.017,2.74-0.985,4.434l-0.457-0.021c0.138-1.45-0.296-3.146-1.468-4.346
					c-1.125-1.215-3.124-1.691-4.779-0.99c-1.082,0.436-1.829,1.425-2.037,2.51c-0.239,1.076,0.043,2.219,0.727,2.948l-0.41,0.256
					c-0.726-2.042-1.516-3.937-2.824-5.14c-1.271-1.213-2.938-1.685-4.157-1.302c-1.236,0.371-1.933,1.271-2.175,1.911
					c-0.261,0.659-0.167,1.07-0.218,1.068c0,0-0.162-0.402,0.063-1.123c0.21-0.698,0.905-1.699,2.238-2.149
					c1.336-0.466,3.158,0.019,4.532,1.286c1.422,1.268,2.26,3.241,3.003,5.277l0.407,1.114l-0.817-0.859
					c-0.818-0.86-1.136-2.176-0.873-3.392c0.221-1.223,1.103-2.395,2.335-2.886c1.874-0.791,4.089-0.244,5.346,1.119
					c1.287,1.341,1.729,3.174,1.561,4.744l-0.457-0.021c-0.01-1.746,0.311-3.413,1.126-4.643c0.405-0.603,0.906-1.109,1.478-1.404
					c0.562-0.302,1.138-0.444,1.661-0.48c1.057-0.073,1.865,0.312,2.275,0.683C112.84,463.995,112.929,464.293,112.929,464.293z"/>
			</g>
		</g>
	</g>
</g>
<g id="Character">
	<g>
		<g>
			<g>
				<g>
					<g>
						<path fill="#455A64" d="M252.27,462.371l-1.725,7.242c0,0-11.844,15.383-15.497,14.631c-2.394-0.493,0.548-4.507,5.053-16.191
							l0.945-4.826L252.27,462.371z"/>
					</g>
				</g>
			</g>
			<g>
				<g>
					<g>
						<g>
							<path fill="#263238" d="M234.567,481.971c0.023-0.023,0.115,0.339,0.632,0.605c0.499,0.281,1.424,0.301,2.268-0.314
								c1.616-1.279,3.696-3.301,5.894-5.586c2.193-2.301,4.036-4.515,5.331-6.146c0.577-0.743,1.079-1.391,1.513-1.95
								c0.146-0.189,0.281-0.364,0.41-0.531c0.096-0.12,0.149-0.181,0.155-0.177s-0.036,0.073-0.12,0.202
								c-0.119,0.174-0.243,0.356-0.378,0.555c-0.333,0.479-0.829,1.163-1.46,1.994c-1.267,1.657-3.096,3.893-5.295,6.199
								c-2.21,2.297-4.291,4.289-5.966,5.565c-0.443,0.287-0.908,0.471-1.337,0.491c-0.426,0.022-0.792-0.081-1.052-0.229
								c-0.265-0.143-0.416-0.331-0.498-0.462C234.58,482.055,234.567,481.971,234.567,481.971z"/>
						</g>
					</g>
				</g>
			</g>
			<g>
				<g>
					<g>
						<g>
							<path fill="#263238" d="M236.244,477.027c-0.008-0.021,0.36-0.153,0.974-0.107c0.61,0.039,1.441,0.283,2.232,0.774
								c0.801,0.479,1.375,1.154,1.623,1.715c0.255,0.561,0.276,0.944,0.256,0.946c-0.037,0.01-0.112-0.359-0.391-0.878
								c-0.273-0.521-0.826-1.137-1.6-1.602c-0.766-0.475-1.554-0.73-2.136-0.807C236.618,476.987,236.25,477.063,236.244,477.027z"
								/>
						</g>
					</g>
				</g>
			</g>
			<g>
				<g>
					<g>
						<g>
							<path fill="#263238" d="M247.457,473.417c-0.013,0.004-0.066-0.118-0.142-0.347c-0.075-0.229-0.167-0.565-0.233-0.992
								c-0.149-0.847-0.065-2.109,0.552-3.294c0.604-1.197,1.603-1.982,2.394-2.326c0.396-0.178,0.739-0.265,0.978-0.302
								c0.239-0.036,0.373-0.036,0.374-0.023c0.009,0.042-0.532,0.082-1.287,0.461c-0.749,0.367-1.689,1.139-2.269,2.287
								c-0.596,1.146-0.699,2.344-0.593,3.178C247.328,472.899,247.495,473.406,247.457,473.417z"/>
						</g>
					</g>
				</g>
			</g>
			<g>
				<g>
					<g>
						<g>
							<path fill="#263238" d="M251.516,463.599c0.052,0.019-0.217,1.03-0.438,2.31c-0.215,1.284-0.552,2.302-0.617,2.278
								c-0.046-0.018,0.191-1.033,0.407-2.317C251.091,464.583,251.457,463.577,251.516,463.599z"/>
						</g>
					</g>
				</g>
			</g>
			<g>
				<g>
					<g>
						<g>
							<path fill="#263238" d="M239.892,469.075c-0.01-0.054,0.685-0.178,1.518,0.018c0.835,0.189,1.405,0.605,1.373,0.648
								c-0.032,0.056-0.625-0.262-1.421-0.44C240.568,469.113,239.896,469.138,239.892,469.075z"/>
						</g>
					</g>
				</g>
			</g>
			<g>
				<g>
					<g>
						<g>
							<path fill="#263238" d="M239.648,470.315c-0.017-0.053,0.57-0.219,1.28-0.047c0.712,0.166,1.161,0.578,1.123,0.617
								c-0.037,0.053-0.51-0.257-1.172-0.409C240.219,470.314,239.658,470.377,239.648,470.315z"/>
						</g>
					</g>
				</g>
			</g>
			<g>
				<g>
					<g>
						<g>
							<path fill="#263238" d="M238.703,471.872c-0.034-0.046,0.563-0.35,1.326-0.171c0.765,0.169,1.172,0.701,1.122,0.727
								c-0.042,0.048-0.477-0.369-1.169-0.519C239.292,471.745,238.721,471.932,238.703,471.872z"/>
						</g>
					</g>
				</g>
			</g>
			<g>
				<g>
					<g>
						<g>
							<path fill="#263238" d="M240.707,468.554c-0.008-0.035,0.547-0.148,1.391-0.475c0.421-0.166,0.912-0.389,1.429-0.688
								c0.258-0.148,0.524-0.317,0.787-0.503c0.241-0.179,0.506-0.44,0.497-0.721c-0.005-0.289-0.36-0.436-0.631-0.365
								c-0.285,0.066-0.516,0.284-0.732,0.487c-0.436,0.411-0.808,0.804-1.111,1.142c-0.604,0.677-0.941,1.13-0.968,1.11
								c-0.012-0.009,0.058-0.132,0.201-0.344c0.144-0.212,0.362-0.512,0.653-0.865s0.655-0.761,1.089-1.185
								c0.215-0.205,0.458-0.457,0.821-0.55c0.338-0.099,0.864,0.087,0.891,0.557c-0.005,0.443-0.329,0.7-0.587,0.902
								c-0.274,0.191-0.545,0.357-0.813,0.505c-0.532,0.296-1.039,0.508-1.473,0.658c-0.435,0.148-0.796,0.236-1.048,0.285
								C240.852,468.556,240.709,468.567,240.707,468.554z"/>
						</g>
					</g>
				</g>
			</g>
			<g>
				<g>
					<g>
						<g>
							<path fill="#263238" d="M241.329,468.405c-0.036,0.004-0.084-0.511-0.217-1.323c-0.073-0.403-0.178-0.884-0.403-1.369
								c-0.114-0.238-0.256-0.49-0.442-0.697c-0.181-0.205-0.456-0.381-0.678-0.251c-0.217,0.12-0.252,0.453-0.219,0.722
								c0.042,0.278,0.126,0.552,0.23,0.795c0.21,0.492,0.507,0.884,0.773,1.192C240.924,468.082,241.353,468.375,241.329,468.405
								c-0.007,0.011-0.123-0.05-0.313-0.185s-0.458-0.344-0.752-0.645c-0.289-0.304-0.611-0.7-0.843-1.216
								c-0.116-0.258-0.208-0.537-0.258-0.849c-0.031-0.293-0.036-0.709,0.323-0.934c0.384-0.201,0.749,0.08,0.936,0.297
								c0.209,0.24,0.348,0.5,0.465,0.757c0.227,0.516,0.318,1.015,0.374,1.428c0.053,0.415,0.069,0.751,0.078,0.983
								C241.347,468.275,241.344,468.404,241.329,468.405z"/>
						</g>
					</g>
				</g>
			</g>
		</g>
		<g>
			<g>
				<g>
					<g>
						<g>
							<g>
								<g>
									<g>
										<path fill="#455A64" d="M309.02,465.732l0.055-9.658l-18.091-0.219l-0.23,14.129l1.121,0.086
											c4.989,0.337,25.389,1.365,28.738,0.394C324.348,469.379,309.02,465.732,309.02,465.732z"/>
									</g>
								</g>
							</g>
						</g>
					</g>
				</g>
				<g>
					<g>
						<g>
							<g>
								<g>
									<g>
										<path fill="#263238" d="M290.503,469.565c0,0.008,0.107,0.021,0.311,0.038c0.268,0.02,0.562,0.041,0.893,0.065
											c0.893,0.05,1.991,0.111,3.286,0.184c2.776,0.135,6.613,0.271,10.854,0.328c4.242,0.057,8.082,0.024,10.86-0.036
											c1.297-0.037,2.396-0.069,3.29-0.095c0.332-0.016,0.625-0.028,0.894-0.041c0.204-0.012,0.312-0.021,0.311-0.029
											c0-0.008-0.107-0.013-0.312-0.016c-0.269,0-0.563,0-0.895,0.001c-0.894,0.007-1.993,0.015-3.29,0.024
											c-2.778,0.021-6.616,0.029-10.855-0.027c-4.238-0.058-8.074-0.169-10.85-0.265c-1.296-0.045-2.395-0.083-3.288-0.114
											c-0.332-0.009-0.626-0.017-0.895-0.023C290.611,469.556,290.504,469.558,290.503,469.565z"/>
									</g>
								</g>
							</g>
						</g>
					</g>
				</g>
				<g>
					<g>
						<g>
							<g>
								<g>
									<g>
										<path fill="#263238" d="M314.869,470.373c0.067,0.01,0.128-0.775,0.634-1.562c0.492-0.795,1.174-1.188,1.137-1.244
											c-0.012-0.055-0.792,0.276-1.322,1.127C314.777,469.539,314.814,470.385,314.869,470.373z"/>
									</g>
								</g>
							</g>
						</g>
					</g>
				</g>
				<g>
					<g>
						<g>
							<g>
								<g>
									<g>
										
											<ellipse transform="matrix(-0.5463 0.8376 -0.8376 -0.5463 870.4635 462.2165)" fill="#263238" cx="310.053" cy="466.85" rx="0.892" ry="0.109"/>
									</g>
								</g>
							</g>
						</g>
					</g>
				</g>
				<g>
					<g>
						<g>
							<g>
								<g>
									<g>
										
											<ellipse transform="matrix(-0.7525 0.6586 -0.6586 -0.7525 848.0594 613.9324)" fill="#263238" cx="308.681" cy="466.304" rx="0.759" ry="0.11"/>
									</g>
								</g>
							</g>
						</g>
					</g>
				</g>
				<g>
					<g>
						<g>
							<g>
								<g>
									<g>
										
											<ellipse transform="matrix(-0.9997 -0.0238 0.0238 -0.9997 605.1645 937.4042)" fill="#263238" cx="308.151" cy="465.107" rx="0.945" ry="0.11"/>
									</g>
								</g>
							</g>
						</g>
					</g>
				</g>
				<g>
					<g>
						<g>
							<g>
								<g>
									<g>
										<path fill="#263238" d="M306.903,463.876c-0.021,0.054,0.437,0.268,1.049,0.319c0.613,0.056,1.101-0.074,1.09-0.131
											c-0.01-0.063-0.488-0.033-1.07-0.088C307.39,463.928,306.924,463.816,306.903,463.876z"/>
									</g>
								</g>
							</g>
						</g>
					</g>
				</g>
				<g>
					<g>
						<g>
							<g>
								<g>
									<g>
										<path fill="#263238" d="M310.199,466.027c-0.002,0.024,0.444,0.084,1.163,0.007c0.358-0.038,0.783-0.118,1.241-0.257
											c0.228-0.078,0.465-0.135,0.712-0.283c0.116-0.075,0.245-0.182,0.292-0.357c0.05-0.174-0.04-0.37-0.17-0.467
											c-1.104-0.59-2.225,0.021-2.645,0.591c-0.231,0.29-0.338,0.574-0.389,0.771c-0.049,0.198-0.047,0.312-0.034,0.313
											c0.041,0.016,0.084-0.457,0.542-0.985c0.226-0.259,0.565-0.509,1.001-0.632c0.412-0.117,0.997-0.143,1.384,0.111
											c0.183,0.139,0.108,0.355-0.098,0.476c-0.193,0.12-0.442,0.192-0.657,0.271c-0.442,0.146-0.853,0.238-1.201,0.296
											C310.643,465.996,310.199,465.991,310.199,466.027z"/>
									</g>
								</g>
							</g>
						</g>
					</g>
				</g>
				<g>
					<g>
						<g>
							<g>
								<g>
									<g>
										<path fill="#263238" d="M310.5,466.088c0.017,0.013,0.191-0.282,0.145-0.806c-0.025-0.257-0.116-0.563-0.307-0.854
											c-0.202-0.261-0.461-0.619-0.96-0.604c-0.27,0.03-0.405,0.336-0.365,0.532c0.019,0.203,0.108,0.38,0.191,0.521
											c0.169,0.293,0.362,0.53,0.54,0.71c0.36,0.361,0.646,0.501,0.659,0.479c0.021-0.028-0.229-0.212-0.544-0.584
											c-0.157-0.186-0.327-0.422-0.478-0.703c-0.157-0.248-0.26-0.69,0.032-0.74c0.292-0.023,0.584,0.27,0.759,0.504
											c0.18,0.254,0.278,0.525,0.319,0.76C310.573,465.779,310.461,466.079,310.5,466.088z"/>
									</g>
								</g>
							</g>
						</g>
					</g>
				</g>
				<g>
					<g>
						<g>
							<g>
								<g>
									<g>
										<path fill="#263238" d="M290.936,464.621c0.003,0.04,0.519-0.043,1.335,0.063c0.809,0.101,1.931,0.447,2.9,1.239
											c0.969,0.794,1.531,1.825,1.79,2.599c0.267,0.778,0.287,1.3,0.327,1.295c0.014,0,0.021-0.13,0.005-0.364
											c-0.016-0.234-0.067-0.573-0.185-0.979c-0.227-0.806-0.788-1.893-1.799-2.721c-1.011-0.826-2.188-1.16-3.022-1.224
											c-0.42-0.034-0.762-0.018-0.995,0.013S290.934,464.607,290.936,464.621z"/>
									</g>
								</g>
							</g>
						</g>
					</g>
				</g>
				<g>
					<g>
						<g>
							<g>
								<g>
									<g>
										
											<ellipse transform="matrix(0.0253 -0.9997 0.9997 0.0253 -175.2942 741.87)" fill="#263238" cx="292.812" cy="460.833" rx="3.718" ry="0.11"/>
									</g>
								</g>
							</g>
						</g>
					</g>
				</g>
				<g>
					<g>
						<g>
							<g>
								<g>
									<g>
										<path fill="#263238" d="M299.613,468.186c-0.008,0.057,1.168,0.266,2.638,0.296c1.47,0.035,2.654-0.121,2.648-0.178
											c-0.005-0.063-1.187-0.007-2.643-0.041C300.8,468.233,299.621,468.124,299.613,468.186z"/>
									</g>
								</g>
							</g>
						</g>
					</g>
				</g>
				<g>
					<g>
						<g>
							<g>
								<g>
									<g>
										<path fill="#263238" d="M296.068,468.136c-0.044,0.044,0.093,0.251,0.21,0.524c0.121,0.271,0.18,0.514,0.243,0.51
											c0.059,0.001,0.097-0.284-0.042-0.598C296.343,468.258,296.107,468.092,296.068,468.136z"/>
									</g>
								</g>
							</g>
						</g>
					</g>
				</g>
				<g>
					<g>
						<g>
							<g>
								<g>
									<g>
										
											<ellipse transform="matrix(-0.6933 -0.7206 0.7206 -0.6933 163.2776 1003.096)" fill="#263238" cx="295.087" cy="466.804" rx="0.482" ry="0.11"/>
									</g>
								</g>
							</g>
						</g>
					</g>
				</g>
				<g>
					<g>
						<g>
							<g>
								<g>
									<g>
										<path fill="#263238" d="M292.851,465.672c0.012,0.062,0.252,0.063,0.517,0.159c0.267,0.091,0.455,0.241,0.502,0.2
											c0.049-0.032-0.1-0.292-0.43-0.407C293.112,465.507,292.833,465.616,292.851,465.672z"/>
									</g>
								</g>
							</g>
						</g>
					</g>
				</g>
				<g>
					<g>
						<g>
							<g>
								<g>
									<g>
										
											<ellipse transform="matrix(-0.9277 -0.3734 0.3734 -0.9277 388.6366 1006.0939)" fill="#263238" cx="291.764" cy="465.405" rx="0.292" ry="0.109"/>
									</g>
								</g>
							</g>
						</g>
					</g>
				</g>
			</g>
		</g>
		<g>
			<g>
				<g>
					<g>
						<g>
							<polygon fill="#263238" points="321.225,280.764 314.286,462.073 286.114,462.664 290.792,305.566 259.105,463.865 
								232.321,463.865 266.826,281.132 							"/>
						</g>
					</g>
				</g>
			</g>
			<g>
				<g>
					<g>
						<path fill="#455A64" d="M297.283,287.36c0.068,0.012-0.061,1.153-0.324,2.989c-0.263,1.836-0.66,4.366-1.128,7.156
							c-0.25,1.389-0.41,2.734-0.805,3.937c-0.378,1.2-1.069,2.191-1.84,2.767c-0.756,0.6-1.523,0.84-2.045,0.913
							c-0.528,0.072-0.82,0.014-0.819-0.013c-0.035-0.1,1.247,0.021,2.641-1.171c0.691-0.574,1.288-1.488,1.627-2.636
							c0.351-1.139,0.502-2.486,0.751-3.88c0.468-2.789,0.92-5.311,1.271-7.132C296.964,288.469,297.216,287.349,297.283,287.36z"/>
					</g>
				</g>
			</g>
			<g>
				<g>
					<g>
						<path fill="#455A64" d="M291.422,288.23c0.062,0.045-0.169,0.337-0.037,0.814c0.063,0.228,0.221,0.489,0.472,0.606
							c0.241,0.124,0.581,0.06,0.84-0.166c0.257-0.228,0.365-0.556,0.273-0.812c-0.084-0.264-0.323-0.453-0.54-0.546
							c-0.457-0.193-0.776-0.002-0.813-0.068c-0.059-0.027,0.26-0.413,0.919-0.266c0.302,0.075,0.679,0.284,0.863,0.721
							c0.194,0.442,0.011,1.018-0.375,1.344c-0.374,0.34-0.967,0.447-1.38,0.197c-0.41-0.237-0.568-0.639-0.604-0.948
							C290.979,288.435,291.403,288.168,291.422,288.23z"/>
					</g>
				</g>
			</g>
			<g>
				<g>
					<g>
						<path fill="#455A64" d="M276.292,290.816c-0.123,0.041-0.532-1.113-0.37-2.584c0.152-1.472,0.796-2.514,0.908-2.448
							c0.132,0.061-0.275,1.128-0.414,2.501C276.261,289.656,276.434,290.785,276.292,290.816z"/>
					</g>
				</g>
			</g>
			<g>
				<g>
					<g>
						<path fill="#455A64" d="M279.679,290.6c-0.125,0.035-0.515-1.151-0.405-2.664c0.101-1.515,0.653-2.635,0.772-2.582
							c0.136,0.049-0.183,1.186-0.276,2.616C279.664,289.4,279.821,290.571,279.679,290.6z"/>
					</g>
				</g>
			</g>
			<g>
				<g>
					<g>
						<path fill="#455A64" d="M308.797,291.339c-0.139-0.038,0.087-1.236,0.159-2.723c0.082-1.486-0.02-2.702,0.122-2.725
							c0.128-0.026,0.458,1.2,0.374,2.75C309.376,290.192,308.921,291.378,308.797,291.339z"/>
					</g>
				</g>
			</g>
			<g>
				<g>
					<g>
						<path fill="#455A64" d="M312.476,291.135c-0.135-0.058,0.304-1.242,0.401-2.765c0.115-1.521-0.155-2.755-0.014-2.793
							c0.118-0.049,0.629,1.202,0.509,2.828C313.266,290.032,312.586,291.2,312.476,291.135z"/>
					</g>
				</g>
			</g>
		</g>
		<g>
			<g>
				<g>
					<g>
						<g>
							<g>
								<g>
									<g>
										<g>
											<g>
												<path fill="#FFBE9D" d="M281.974,205.333l17.393-1.389c0.108-2.031-0.037-9.887-0.037-9.887s7.237-1.125,7.326-8.36
													c0.089-7.235-1.165-23.85-1.165-23.85l0,0c-8.375-3.6-18.043-2.384-25.267,3.176l-1.072,0.825L281.974,205.333z"/>
											</g>
										</g>
									</g>
								</g>
								<g>
									<g>
										<g>
											<g>
												<path fill="#EB996E" d="M299.342,193.953c0,0-4.572,0.372-9.433-2.681c0,0,2.23,5.207,9.45,4.555L299.342,193.953z"/>
											</g>
										</g>
									</g>
								</g>
							</g>
						</g>
					</g>
					<g>
						<g>
							<g>
								<g>
									<g>
										<g>
											<g>
												<g>
													<g>
														<g>
															<path fill="#263238" d="M302.674,173.188c0.02,0.546-0.427,1.012-0.997,1.042c-0.568,0.031-1.045-0.386-1.065-0.932
																c-0.019-0.545,0.427-1.012,0.995-1.043C302.177,172.225,302.655,172.642,302.674,173.188z"/>
														</g>
													</g>
												</g>
											</g>
											<g>
												<g>
													<g>
														<g>
															<g>
																<path fill="#263238" d="M304.122,172.026c-0.128,0.135-0.911-0.444-2.022-0.441
																	c-1.111-0.013-1.927,0.559-2.047,0.423c-0.06-0.061,0.071-0.304,0.426-0.563c0.35-0.257,0.946-0.508,1.639-0.505
																	c0.692,0.004,1.275,0.259,1.61,0.52C304.069,171.722,304.185,171.966,304.122,172.026z"/>
															</g>
														</g>
													</g>
												</g>
											</g>
										</g>
										<g>
											<g>
												<g>
													<g>
														<g>
															<path fill="#263238" d="M291.443,173.449c0.019,0.545-0.427,1.012-0.996,1.042s-1.046-0.386-1.065-0.932
																c-0.019-0.545,0.427-1.012,0.996-1.043C290.947,172.486,291.424,172.903,291.443,173.449z"/>
														</g>
													</g>
												</g>
											</g>
											<g>
												<g>
													<g>
														<g>
															<g>
																<path fill="#263238" d="M293.192,172.233c-0.128,0.135-0.912-0.444-2.023-0.441
																	c-1.11-0.013-1.927,0.559-2.047,0.423c-0.059-0.061,0.07-0.304,0.427-0.562c0.35-0.258,0.946-0.508,1.639-0.505
																	c0.693,0.004,1.275,0.259,1.61,0.52C293.139,171.93,293.255,172.173,293.192,172.233z"/>
															</g>
														</g>
													</g>
												</g>
											</g>
										</g>
										<g>
											<g>
												<g>
													<g>
														<g>
															<path fill="#263238" d="M297.228,180.479c-0.005-0.063,0.686-0.182,1.806-0.326c0.284-0.029,0.552-0.085,0.601-0.279
																c0.067-0.205-0.052-0.511-0.19-0.842c-0.267-0.687-0.546-1.407-0.839-2.162c-1.166-3.078-2.01-5.609-1.886-5.655
																s1.17,2.412,2.336,5.49c0.28,0.759,0.549,1.482,0.804,2.175c0.107,0.322,0.292,0.688,0.147,1.114
																c-0.077,0.212-0.285,0.366-0.467,0.415c-0.182,0.056-0.342,0.059-0.482,0.067
																C297.931,180.538,297.232,180.542,297.228,180.479z"/>
														</g>
													</g>
												</g>
											</g>
										</g>
										<g>
											<g>
												<g>
													<g>
														<g>
															<path fill="#263238" d="M293.956,181.249c0.181-0.011,0.183,1.196,1.216,2.053c1.031,0.859,2.318,0.724,2.327,0.893
																c0.017,0.076-0.286,0.234-0.829,0.249c-0.533,0.019-1.311-0.153-1.943-0.677c-0.63-0.525-0.901-1.226-0.942-1.721
																C293.738,181.541,293.873,181.241,293.956,181.249z"/>
														</g>
													</g>
												</g>
											</g>
										</g>
									</g>
								</g>
							</g>
							<g>
								<g>
									<g>
										<g>
											<path fill="#263238" d="M293.479,167.876c-0.11,0.302-1.22,0.159-2.524,0.316c-1.308,0.131-2.36,0.513-2.533,0.242
												c-0.077-0.13,0.106-0.414,0.532-0.707c0.421-0.292,1.094-0.57,1.877-0.657c0.783-0.085,1.5,0.039,1.975,0.232
												C293.286,167.495,293.527,167.732,293.479,167.876z"/>
										</g>
									</g>
								</g>
							</g>
							<g>
								<g>
									<g>
										<g>
											<path fill="#263238" d="M303.713,168.808c-0.195,0.252-0.961-0.01-1.882-0.022c-0.921-0.044-1.701,0.169-1.881-0.094
												c-0.079-0.128,0.044-0.381,0.385-0.621c0.335-0.238,0.897-0.433,1.53-0.414c0.633,0.02,1.181,0.249,1.502,0.507
												C303.692,168.425,303.799,168.685,303.713,168.808z"/>
										</g>
									</g>
								</g>
							</g>
						</g>
					</g>
				</g>
			</g>
			<g>
				<g>
					<g>
						<g>
							<g>
								<path fill="#FFBE9D" d="M280.043,173.344c-0.123-0.054-4.971-1.471-4.813,3.476c0.158,4.946,5.091,3.768,5.096,3.625
									C280.33,180.303,280.043,173.344,280.043,173.344z"/>
							</g>
						</g>
					</g>
				</g>
				<g>
					<g>
						<g>
							<g>
								<g>
									<path fill="#EB996E" d="M278.754,178.62c-0.022-0.015-0.084,0.063-0.228,0.134c-0.14,0.069-0.383,0.122-0.644,0.034
										c-0.529-0.175-0.996-0.99-1.048-1.881c-0.027-0.45,0.054-0.881,0.202-1.241c0.14-0.367,0.365-0.627,0.627-0.682
										c0.26-0.069,0.451,0.083,0.516,0.22c0.071,0.136,0.042,0.236,0.069,0.244c0.015,0.012,0.104-0.086,0.057-0.29
										c-0.023-0.097-0.085-0.212-0.204-0.304c-0.122-0.093-0.298-0.136-0.481-0.11c-0.38,0.039-0.712,0.4-0.875,0.795
										c-0.184,0.398-0.285,0.883-0.255,1.388c0.064,0.996,0.604,1.913,1.326,2.096c0.351,0.08,0.638-0.035,0.784-0.156
										C278.75,178.739,278.772,178.628,278.754,178.62z"/>
								</g>
							</g>
						</g>
					</g>
				</g>
			</g>
			<g>
				<path fill="#263238" d="M308.261,155.597c-1.051-2.076-3.097-3.618-5.381-4.058c-2.284-0.439-4.756,0.234-6.502,1.772
					c-1.094-2.179-3.313-3.753-5.73-4.067c-2.417-0.313-4.964,0.643-6.578,2.47c-1.387,1.57-2.105,3.707-3.73,5.029
					c-1.406,1.145-3.313,1.525-4.728,2.66c-1.557,1.25-2.333,3.399-1.932,5.355s1.959,3.628,3.881,4.165
					c-1.551,2.798-0.097,6.813,2.887,7.968l0.721-0.299c2.737-3.005,3.363-7.748,1.498-11.359c0.089,0.005,0.172-0.009,0.259-0.011
					c0.953,0.52,2.049,0.78,3.133,0.717c1.73-0.102,3.394-1.024,4.396-2.438c1.975,1.425,4.806,1.544,6.894,0.29
					c0.329-0.198,0.657-0.432,1.039-0.473c0.455-0.048,0.885,0.187,1.295,0.388c1.085,0.533,2.305,0.881,3.502,0.707
					c1.116-0.162,2.188-0.856,2.629-1.882c0.028-0.004,0.055-0.005,0.083-0.01c1.395-0.252,2.513-1.442,2.896-2.806
					S308.901,156.861,308.261,155.597z"/>
			</g>
		</g>
		<g>
			<g>
				<path fill="#E8505B" d="M319.243,242.443l0.632-32.605c-5.786-5.687-8.875-7.387-16.932-8.339
					c-0.85-0.101-1.575-0.176-2.193-0.244l-0.69-5.37l-19.764-1.12l0.988,6.374v0c-2.866,0.122-5.24,1.004-7.678,1.471
					c-7.678,1.471-13.204,7.063-14.739,12.228c-1.264,4.252-9.378,35.762-9.378,35.762l-1.65,9.512l18.123-6.579l-0.013,6.849
					l0.044,25.159h55.048C321.186,279.542,319.243,242.443,319.243,242.443z"/>
			</g>
			<g opacity="0.2">
				<path fill="#C62828" d="M319.243,242.443l0.632-32.605c-5.786-5.687-8.875-7.387-16.932-8.339
					c-0.85-0.101-1.575-0.176-2.193-0.244l-0.69-5.37l-19.764-1.12l0.988,6.374v0c-2.866,0.122-5.24,1.004-7.678,1.471
					c-7.678,1.471-13.204,7.063-14.739,12.228c-1.264,4.252-9.378,35.762-9.378,35.762l-1.65,9.512l18.123-6.579l-0.013,6.849
					l0.044,25.159h55.048C321.186,279.542,319.243,242.443,319.243,242.443z"/>
			</g>
			<g>
				<g>
					<path fill="#E8505B" d="M256.121,251.055l27.133-3.856l5.158,9.238l-25.224,11.371c-1.407,0.634-2.932,0.962-4.475,0.962l0,0
						c-4.417,0-8.396-2.669-10.073-6.755l-0.816-1.99L256.121,251.055z"/>
				</g>
			</g>
			<g opacity="0.2">
				<g>
					<path d="M256.121,251.055l27.133-3.856l5.158,9.238l-25.224,11.371c-1.407,0.634-2.932,0.962-4.475,0.962l0,0
						c-4.417,0-8.396-2.669-10.073-6.755l-0.816-1.99L256.121,251.055z"/>
				</g>
			</g>
			<g>
				<g>
					<path fill="#E8505B" d="M311.562,203.488c0,0,7.667,2.612,10.887,9.986c2.101,4.812,5.189,27.97,5.189,27.97l3.894,7.51
						c0.934,1.801,1.421,3.8,1.421,5.829v1.145c0,2.911-1.003,5.732-2.84,7.991l0,0c-2.159,2.653-5.297,4.317-8.704,4.622
						c-3.887,0.349-8.588,0.501-9.592-0.646c-1.772-2.024-4.43-7.467-4.43-7.467l11.335-6.021l-4.881-9.039L311.562,203.488z"/>
				</g>
			</g>
			<g opacity="0.2">
				<g>
					<path fill="#C62828" d="M311.562,203.488c0,0,7.667,2.612,10.887,9.986c2.101,4.812,5.189,27.97,5.189,27.97l3.894,7.51
						c0.934,1.801,1.421,3.8,1.421,5.829v1.145c0,2.911-1.003,5.732-2.84,7.991l0,0c-2.159,2.653-5.297,4.317-8.704,4.622
						c-3.887,0.349-8.588,0.501-9.592-0.646c-1.772-2.024-4.43-7.467-4.43-7.467l11.335-6.021l-4.881-9.039L311.562,203.488z"/>
				</g>
			</g>
			<g>
				<g>
					<g>
						<path fill="#263238" d="M265.08,266.956c-0.006-0.014,0.144-0.098,0.438-0.246c0.339-0.164,0.769-0.373,1.299-0.631
							c1.193-0.558,2.838-1.326,4.869-2.275c4.21-1.921,10.011-4.569,16.625-7.588l-0.112,0.34
							c-1.028-1.837-2.093-3.741-3.184-5.691c-0.677-1.214-1.344-2.41-1.977-3.545l0.24,0.125
							c-7.854,0.771-14.813,1.454-19.876,1.951c-2.463,0.22-4.462,0.399-5.908,0.528c-0.655,0.049-1.184,0.089-1.596,0.12
							c-0.364,0.022-0.556,0.026-0.558,0.011c-0.001-0.016,0.187-0.05,0.548-0.103c0.41-0.053,0.936-0.121,1.587-0.206
							c1.441-0.166,3.436-0.396,5.893-0.678c5.06-0.538,12.012-1.278,19.86-2.113l0.161-0.017l0.08,0.142
							c0.634,1.134,1.302,2.33,1.98,3.543c1.088,1.952,2.15,3.857,3.174,5.696l0.13,0.232l-0.242,0.108
							c-6.642,2.957-12.468,5.551-16.695,7.433c-2.056,0.894-3.721,1.617-4.929,2.143c-0.545,0.228-0.986,0.411-1.333,0.556
							C265.249,266.912,265.086,266.969,265.08,266.956z"/>
					</g>
				</g>
			</g>
			<g>
				<g>
					<g>
						<ellipse fill="#263238" cx="269.897" cy="237.54" rx="0.249" ry="10.834"/>
					</g>
				</g>
			</g>
			<g>
				<g>
					<g>
						<path fill="#263238" d="M316.596,255.617c-0.002-0.033,0.29-0.088,0.825-0.13c0.534-0.031,1.321-0.086,2.288,0.138
							c0.474,0.118,1.022,0.335,1.436,0.812c0.385,0.48,0.636,1.067,0.75,1.728c0.108,0.655,0.075,1.38-0.185,2.067
							c-0.252,0.692-0.752,1.313-1.373,1.761c-1.273,0.886-2.702,1.14-3.93,1.401c-1.253,0.241-2.4,0.328-3.364,0.328
							c-1.941,0.02-3.088-0.472-3.053-0.533c0.02-0.065,1.152,0.289,3.045,0.182c0.94-0.044,2.063-0.165,3.28-0.425
							c1.209-0.279,2.594-0.559,3.729-1.355c1.149-0.789,1.598-2.179,1.397-3.354c-0.083-0.582-0.312-1.136-0.615-1.537
							c-0.313-0.389-0.777-0.607-1.211-0.736c-0.885-0.25-1.665-0.256-2.191-0.282C316.894,255.663,316.598,255.652,316.596,255.617
							z"/>
					</g>
				</g>
			</g>
			<g>
				<g>
					<g>
						<path fill="#263238" d="M321.095,268.733c0.005,0.062-0.733,0.204-1.949,0.231c-1.207,0.021-2.927-0.093-4.687-0.778
							c-0.866-0.346-1.671-0.741-2.333-1.241c-0.662-0.499-1.13-1.098-1.442-1.629c-0.61-1.077-0.742-1.829-0.695-1.845
							c0.079-0.033,0.336,0.68,0.991,1.656c0.334,0.48,0.792,1.007,1.417,1.449c0.624,0.441,1.406,0.813,2.243,1.147
							c1.674,0.652,3.328,0.822,4.513,0.889C320.344,268.676,321.09,268.658,321.095,268.733z"/>
					</g>
				</g>
			</g>
			<g>
				<g>
					<g>
						<path fill="#263238" d="M326.516,245.229c0.054,0.034-0.469,0.655-1.338,1.608c-0.872,0.956-2.1,2.254-3.477,3.667
							c-1.378,1.414-2.645,2.673-3.579,3.569c-0.935,0.895-1.537,1.425-1.586,1.377c-0.049-0.048,0.464-0.664,1.334-1.622
							s2.097-2.257,3.475-3.67C324.097,247.334,326.42,245.114,326.516,245.229z"/>
					</g>
				</g>
			</g>
			<g>
				<g>
					<g>
						<ellipse fill="#263238" cx="314.159" cy="233.977" rx="0.249" ry="6.194"/>
					</g>
				</g>
			</g>
			<g>
				<g>
					<path fill="#FAFAFA" d="M318.202,207.688c0,0.144-12.209,0.26-27.267,0.26c-15.063,0-27.27-0.116-27.27-0.26
						c0-0.144,12.207-0.26,27.27-0.26C305.992,207.427,318.202,207.544,318.202,207.688z"/>
				</g>
			</g>
			<g>
				<g>
					
						<ellipse transform="matrix(1 0.0057 -0.0057 1 1.1497 -1.65)" fill="#263238" cx="290.802" cy="201.388" rx="9.404" ry="0.26"/>
				</g>
			</g>
			<g>
				<g>
					<path fill="#FAFAFA" d="M324.135,218.705c0,0.144-14.828,0.261-33.116,0.261c-18.293,0-33.119-0.117-33.119-0.261
						c0-0.144,14.825-0.26,33.119-0.26C309.307,218.445,324.135,218.562,324.135,218.705z"/>
				</g>
			</g>
			<g>
				<g>
					<path fill="#FAFAFA" d="M326.18,230.033c0,0.144-16.026,0.261-35.79,0.261c-19.771,0-35.793-0.117-35.793-0.261
						c0-0.144,16.022-0.26,35.793-0.26C310.154,229.772,326.18,229.889,326.18,230.033z"/>
				</g>
			</g>
			<g>
				<g>
					<path fill="#FAFAFA" d="M327.463,241.045c0,0.144-16.912,0.261-37.769,0.261c-20.864,0-37.772-0.117-37.772-0.261
						c0-0.144,16.908-0.26,37.772-0.26C310.551,240.785,327.463,240.902,327.463,241.045z"/>
				</g>
			</g>
			<g>
				<g>
					<path fill="#FAFAFA" d="M332.575,258.981c0,0.144-18.796,0.261-41.976,0.261c-23.188,0-41.98-0.117-41.98-0.261
						s18.792-0.261,41.98-0.261C313.779,258.72,332.575,258.837,332.575,258.981z"/>
				</g>
			</g>
			<g>
				<g>
					<path fill="#FAFAFA" d="M320.516,271.567c0,0.144-12.398,0.261-27.688,0.261c-15.295,0-27.691-0.117-27.691-0.261
						s12.396-0.261,27.691-0.261C308.118,271.306,320.516,271.423,320.516,271.567z"/>
				</g>
			</g>
		</g>
		<g>
			<g>
				<g>
					<path fill="#FFBE9D" d="M307.697,242.758l-0.589-0.442c-3.053-2.289-6.929-3.185-10.677-2.468l0,0
						c-3.055,0.585-5.914,1.927-8.315,3.904l-4.649,3.827l4.945,8.858l3.363-4.709c0,0,3.14,4.26,3.7,3.812s1.233-1.794,1.233-1.794
						l-2.243-3.139l5.382,1.122l7.849-3.588l-3.364-4.26l3.364,1.121V242.758z"/>
				</g>
			</g>
			<g>
				<g>
					<polygon fill="#263238" points="299.41,241.946 282.143,262.859 283.467,264.292 311.49,260.021 325.387,239.109 
						324.097,237.948 					"/>
				</g>
			</g>
			<g>
				<g>
					<path fill="#FFBE9D" d="M317.728,247.465L317.728,247.465c-1.102,0-2.096,0.673-2.491,1.701
						c-0.416,1.082-1.024,2.346-1.698,2.714c-1.245,0.68-3.396,1.222-4.528,0.667c-1.132-0.554-5.66-4.629-6.453-4.176
						c-0.792,0.453-1.472,1.472-0.68,2.377c0.792,0.905,4.981,3.623,4.189,4.528s-9.623-3.081-10.981-2.729
						c-1.358,0.353-2.151,1.188-1.358,1.732c0.792,0.544,6.792,2.809,7.132,3.601c0,0-9.057-2.377-9.396-1.812
						c-0.34,0.566-0.906,1.472,0,1.812s8.717,2.378,9.396,2.718c0.679,0.339,3.021,1.019,3.491,1.019
						c0.248,0,2.021,0.594,3.648,1.157c1.834,0.635,3.835,0.581,5.633-0.151l0.917-0.373c1.427-0.581,2.325-2.007,2.232-3.545
						l-0.185-3.088l0.988-2.548L317.728,247.465z"/>
				</g>
			</g>
			<g>
				<g>
					<g>
						<path fill="#455A64" d="M325.439,239.299c0.002,0.017-0.176,0.06-0.518,0.126c-0.397,0.07-0.893,0.158-1.498,0.266
							c-1.374,0.221-3.243,0.521-5.523,0.887c-2.356,0.36-5.131,0.784-8.201,1.252c-1.544,0.233-3.162,0.479-4.837,0.732
							c-1.651,0.278-3.365,0.739-4.69,1.9c-1.328,1.146-2.333,2.62-3.417,3.925c-1.062,1.324-2.087,2.603-3.065,3.822
							c-1.952,2.417-3.715,4.601-5.212,6.455c-1.464,1.785-2.666,3.249-3.548,4.324c-0.398,0.469-0.723,0.853-0.984,1.16
							c-0.229,0.262-0.356,0.394-0.37,0.383c-0.014-0.011,0.087-0.163,0.291-0.445c0.242-0.323,0.543-0.726,0.912-1.218
							c0.852-1.101,2.01-2.598,3.424-4.424c1.474-1.873,3.209-4.079,5.129-6.521c0.971-1.225,1.988-2.509,3.042-3.84
							c1.079-1.306,2.069-2.779,3.477-4.001c1.422-1.245,3.26-1.728,4.929-2c1.681-0.245,3.304-0.48,4.853-0.706
							c3.076-0.429,5.855-0.817,8.216-1.147c2.289-0.301,4.167-0.549,5.546-0.73c0.611-0.07,1.111-0.128,1.511-0.174
							C325.253,239.292,325.437,239.283,325.439,239.299z"/>
					</g>
				</g>
			</g>
			<g>
				<g>
					<path fill="#FAFAFA" d="M312.331,243.882c-0.289,0.172-0.586,0.354-0.777,0.63s-0.245,0.678-0.034,0.94
						c0.268,0.332,0.813,0.273,1.156,0.019c0.221-0.164,0.396-0.4,0.448-0.67c0.053-0.27-0.03-0.571-0.24-0.75
						c-0.209-0.178-0.546-0.203-0.76-0.03"/>
				</g>
			</g>
		</g>
	</g>
</g>
<g id="Speech_Bubble">
	<g>
		<g>
			<path fill="#C62828" d="M230.527,196.856l-5.076-8.945c2.246-3.645,3.543-7.936,3.543-12.53
				c0-13.215-10.713-23.927-23.927-23.927s-23.927,10.712-23.927,23.927c0,13.214,10.712,23.927,23.927,23.927
				c5.518,0,10.596-1.873,14.643-5.011l-0.008,0.011L230.527,196.856z"/>
		</g>
		<g>
			<path fill="#FFFFFF" d="M196.733,172.463c0-2.162,1.302-3.537,3.146-3.537s3.128,1.356,3.128,3.537
				c0,2.181-1.284,3.537-3.128,3.537S196.733,174.625,196.733,172.463z M201.199,172.463c0-1.374-0.524-2.034-1.32-2.034
				c-0.777,0-1.32,0.678-1.32,2.034c0,1.356,0.542,2.034,1.32,2.034C200.675,174.497,201.199,173.837,201.199,172.463z
				 M207.419,169.073h2.152l-8.643,12.828h-2.152L207.419,169.073z M205.34,178.511c0-2.163,1.302-3.537,3.128-3.537
				c1.844,0,3.146,1.375,3.146,3.537c0,2.162-1.302,3.537-3.146,3.537C206.642,182.047,205.34,180.673,205.34,178.511z
				 M209.788,178.511c0-1.356-0.524-2.034-1.32-2.034c-0.777,0-1.32,0.66-1.32,2.034s0.542,2.034,1.32,2.034
				C209.263,180.545,209.788,179.867,209.788,178.511z"/>
		</g>
	</g>
</g>
</svg>
