<svg xmlns="http://www.w3.org/2000/svg" xmlns:xlink="http://www.w3.org/1999/xlink" width="1280" height="801" viewBox="0 0 1280 801"><defs><linearGradient id="a" x1="0.5" x2="0.5" y2="1" gradientUnits="objectBoundingBox"><stop offset="0" stop-color="#fff"/><stop offset="1" stop-color="#ececec"/></linearGradient><clipPath id="ae"><rect width="1280" height="801"/></clipPath></defs><g id="ad" clip-path="url(#ae)"><rect width="1280" height="801" fill="#fff"/><g transform="translate(213)"><rect width="28.55" height="801" transform="translate(557.165)" fill="url(#a)"/><rect width="27.566" height="801" transform="translate(353.498)" fill="url(#a)"/><rect width="27.566" height="801" transform="translate(767.835)" fill="url(#a)"/><rect width="27.566" height="801" transform="translate(1076.758)" fill="url(#a)"/><rect width="27.566" height="801" transform="translate(148.758)" fill="url(#a)"/><rect width="28.55" height="801" transform="translate(662.58)" fill="url(#a)"/><rect width="28.55" height="801" transform="translate(971.503)" fill="url(#a)"/><rect width="28.55" height="801" transform="translate(50.503 2)" fill="url(#a)"/><rect width="27.566" height="801" transform="translate(455.282)" fill="url(#a)"/><rect width="27.566" height="801" transform="translate(869.619)" fill="url(#a)"/><rect width="28.55" height="801" transform="translate(609.872)" fill="url(#a)"/><rect width="27.566" height="801" transform="translate(404.39)" fill="url(#a)"/><rect width="27.566" height="801" transform="translate(818.727)" fill="url(#a)"/><rect width="28.55" height="801" transform="translate(715.287)" fill="url(#a)"/><rect width="28.55" height="801" transform="translate(1024.21)" fill="url(#a)"/><rect width="28.55" height="801" transform="translate(96.21)" fill="url(#a)"/><rect width="27.566" height="801" transform="translate(506.173)" fill="url(#a)"/><rect width="27.566" height="801" transform="translate(920.511)" fill="url(#a)"/><rect width="27.566" height="801" transform="translate(-7.489)" fill="url(#a)"/><rect width="27.566" height="801" transform="translate(1178.542)" fill="url(#a)"/><rect width="27.566" height="801" transform="translate(250.542)" fill="url(#a)"/><rect width="27.566" height="801" transform="translate(1127.65)" fill="url(#a)"/><rect width="27.566" height="801" transform="translate(199.65)" fill="url(#a)"/><rect width="27.566" height="801" transform="translate(1229.434)" fill="url(#a)"/><rect width="27.566" height="801" transform="translate(301.434)" fill="url(#a)"/><rect width="27.566" height="801" transform="translate(-160.165)" fill="url(#a)"/><rect width="27.566" height="801" transform="translate(-58.381)" fill="url(#a)"/><rect width="27.566" height="801" transform="translate(-109.273)" fill="url(#a)"/><rect width="28.55" height="801" transform="translate(-212.713)" fill="url(#a)"/></g></g></svg>