<?xml version="1.0"?>
<svg xmlns="http://www.w3.org/2000/svg" height="512px" viewBox="0 -4 488 488" width="512px" class=""><g><path d="m8 440h464v32h-464zm0 0" fill="#a8dba8" data-original="#A8DBA8" class="" data-old_color="#a8dba8" style="fill:#E3E3E3"/><path d="m204 424c-13.253906 0-24-10.746094-24-24v-8h-12v48h16c10.144531-.027344 19.179688-6.433594 22.558594-16zm0 0" fill="#cff09e" data-original="#CFF09E" class="" data-old_color="#cff09e" style="fill:#EBEBEB"/><path d="m48 336v72c0 17.671875 14.328125 32 32 32h88v-48h-72v-56" fill="#79bd9a" data-original="#79BD9A" class="active-path" data-old_color="#79bd9a" style="fill:#D5D5D5"/><path d="m64 120c-22.089844 0-40 17.910156-40 40v32c0 13.253906 10.746094 24 24 24h16c4.417969 0 8-3.582031 8-8v-40h56c13.253906 0 24-10.746094 24-24v-24zm0 0" fill="#a8dba8" data-original="#A8DBA8" class="" data-old_color="#a8dba8" style="fill:#E3E3E3"/><path d="m48 336v72c0 17.671875 14.328125 32 32 32h-72v-112c0-26.507812 21.492188-48 48-48h32c26.507812 0 48 21.492188 48 48v64h-40v-56" fill="#79bd9a" data-original="#79BD9A" class="active-path" data-old_color="#79bd9a" style="fill:#D5D5D5"/><path d="m96 256-48 16v-24h48zm0 0" fill="#cff09e" data-original="#CFF09E" class="" data-old_color="#cff09e" style="fill:#EBEBEB"/><path d="m64 216h-16v16h16c4.417969 0 8-3.582031 8-8v-16c0 4.417969-3.582031 8-8 8zm0 0" fill="#cff09e" data-original="#CFF09E" class="" data-old_color="#cff09e" style="fill:#EBEBEB"/><path d="m72 168h56v16h-56zm0 0" fill="#cff09e" data-original="#CFF09E" class="" data-old_color="#cff09e" style="fill:#EBEBEB"/><path d="m432 336v72c0 17.671875-14.328125 32-32 32h-88v-48h72v-56" fill="#79bd9a" data-original="#79BD9A" class="active-path" data-old_color="#79bd9a" style="fill:#D5D5D5"/><path d="m304 424c-13.253906 0-24-10.746094-24-24 0-.640625 0-1.28125 0-1.921875-7.441406 6.632813-10.011719 17.167969-6.457031 26.480469 3.554687 9.308594 12.492187 15.457031 22.457031 15.441406h16v-16zm0 0" fill="#cff09e" data-original="#CFF09E" class="" data-old_color="#cff09e" style="fill:#EBEBEB"/><path d="m432 336v72c0 17.671875-14.328125 32-32 32h72v-112c0-26.507812-21.492188-48-48-48h-32c-26.507812 0-48 21.492188-48 48v64h40v-56" fill="#79bd9a" data-original="#79BD9A" class="active-path" data-old_color="#79bd9a" style="fill:#D5D5D5"/><path d="m352 104c-9.054688-.042969-17.707031 3.753906-23.804688 10.449219-6.101562 6.691406-9.078124 15.65625-8.195312 24.671875 2.085938 16.746094 16.484375 29.214844 33.359375 28.878906h46.640625v24c0 8.835938 7.164062 16 16 16h16c26.507812 0 48-21.492188 48-48v-8c0-26.507812-21.492188-48-48-48zm0 0" fill="#a8dba8" data-original="#A8DBA8" class="" data-old_color="#a8dba8" style="fill:#E3E3E3"/><path d="m432 256-48 16v-24h48zm0 0" fill="#cff09e" data-original="#CFF09E" class="" data-old_color="#cff09e" style="fill:#EBEBEB"/><path d="m416 208c-8.835938 0-16-7.164062-16-16v-24h-48v24h40v24c0 8.835938 7.164062 16 16 16h16c8.429688-.015625 16.707031-2.25 24-6.480469v-20.320312c-5.136719 1.835937-10.546875 2.78125-16 2.800781zm0 0" fill="#cff09e" data-original="#CFF09E" class="" data-old_color="#cff09e" style="fill:#EBEBEB"/><path d="m168.558594 8h-16.558594c-8.835938 0-16 7.164062-16 16v16l-48 48h168c13.253906 0 24-10.746094 24-24h-48c-32.230469-.027344-59.410156-24.023438-63.441406-56zm0 0" fill="#cff09e" data-original="#CFF09E" class="" data-old_color="#cff09e" style="fill:#EBEBEB"/><path d="m264 272c-35.347656 0-64-28.652344-64-64v-24h-8c-8.835938 0-16 7.164062-16 16v80c0 8.835938 7.164062 16 16 16h48l40 48v-48h8c8.835938 0 16-7.164062 16-16v-8zm0 0" fill="#cff09e" data-original="#CFF09E" class="" data-old_color="#cff09e" style="fill:#EBEBEB"/><g fill="#3b8686"><path d="m456 232v-21.519531c19.503906-9.253907 31.957031-28.890625 32-50.480469v-8c0-30.929688-25.070312-56-56-56h-80c-11.324219-.054688-22.140625 4.695312-29.765625 13.066406s-11.34375 19.582032-10.234375 30.855469c2.097656 17.277344 14.964844 31.304687 32 34.878906v41.199219c-.003906 19.011719 13.375 35.398438 32 39.199219v19.121093c-23.738281 7.078126-40.007812 28.910157-40 53.679688v56h-40c-17.671875 0-32 14.328125-32 32 .023438 5.640625 1.570312 11.167969 4.480469 16h-56.960938c2.910157-4.832031 4.457031-10.359375 4.480469-16 0-17.671875-14.328125-32-32-32h-40v-56c.007812-24.769531-16.261719-46.601562-40-53.679688v-19.121093c18.625-3.800781 32.003906-20.1875 32-39.199219v-41.121094c14.089844-3.636718 23.953125-16.324218 24-30.878906v-24c0-4.417969-3.582031-8-8-8h-88c-26.507812 0-48 21.492188-48 48v32c.046875 14.554688 9.910156 27.242188 24 30.878906v51.441406c-23.738281 7.078126-40.0078125 28.910157-40 53.679688v144c0 4.417969 3.582031 8 8 8h464c4.417969 0 8-3.582031 8-8v-144c.007812-24.769531-16.261719-46.601562-40-53.679688v-19.761718c9.566406-3.378906 15.972656-12.414063 16-22.558594zm-128-93.601562c-.605469-6.738282 1.660156-13.417969 6.238281-18.398438 4.523438-5.058594 10.976563-7.964844 17.761719-8h80c22.089844 0 40 17.910156 40 40v8c-.070312 17.933594-12.070312 33.628906-29.359375 38.398438l-3.359375.882812c-2.402344.441406-4.839844.679688-7.28125.71875h-16c-4.417969 0-8-3.582031-8-8v-24c0-4.417969-3.582031-8-8-8h-46.640625c-12.710937.28125-23.617187-9.003906-25.359375-21.601562zm32 77.601562v-40h32v16c0 13.253906 10.746094 24 24 24h16c2.464844-.023438 4.921875-.210938 7.359375-.558594h.640625v16.558594c0 4.417969-3.582031 8-8 8h-48c-13.253906 0-24-10.746094-24-24zm-80 200c0-8.835938 7.164062-16 16-16h8v32h-8c-8.835938 0-16-7.164062-16-16zm-80 0c0 8.835938-7.164062 16-16 16h-8v-32h8c8.835938 0 16 7.164062 16 16zm-80-200c0 13.253906-10.746094 24-24 24h-40v-16h8c8.835938 0 16-7.164062 16-16v-32h40zm-88-24v-32c0-17.671875 14.328125-32 32-32h80v16c0 8.835938-7.164062 16-16 16h-56c-4.417969 0-8 3.582031-8 8v40h-16c-8.835938 0-16-7.164062-16-16zm24 64h32v16h-32zm-40 72c0-22.089844 17.910156-40 40-40h32c22.089844 0 40 17.910156 40 40v56h-24v-48c0-4.417969-3.582031-8-8-8s-8 3.582031-8 8v56c0 4.417969 3.582031 8 8 8h64v32h-80c-13.253906 0-24-10.746094-24-24v-72c0-4.417969-3.582031-8-8-8s-8 3.582031-8 8v72c-.046875 8.664062 2.765625 17.097656 8 24h-32zm448 136h-448v-16h448zm0-136v104h-32c5.234375-6.902344 8.046875-15.335938 8-24v-72c0-4.417969-3.582031-8-8-8s-8 3.582031-8 8v72c0 13.253906-10.746094 24-24 24h-80v-32h64c4.417969 0 8-3.582031 8-8v-56c0-4.417969-3.582031-8-8-8s-8 3.582031-8 8v48h-24v-56c0-22.089844 17.910156-40 40-40h32c22.089844 0 40 17.910156 40 40zm-72-56v-16h32v16zm0 0" data-original="#000000" class="" data-old_color="#000000" style="fill:#7E7E7E"/><path d="m88 96h168c17.671875 0 32-14.328125 32-32v-40c0-13.253906-10.746094-24-24-24h-112c-13.253906 0-24 10.746094-24 24v12.71875l-45.679688 45.601562c-2.269531 2.300782-2.933593 5.742188-1.679687 8.71875 1.226563 2.988282 4.128906 4.945313 7.359375 4.960938zm53.679688-50.320312c1.496093-1.507813 2.332031-3.554688 2.320312-5.679688v-16c0-4.417969 3.582031-8 8-8h112c4.417969 0 8 3.582031 8 8v40c0 8.835938-7.164062 16-16 16h-148.71875zm0 0" data-original="#000000" class="" data-old_color="#000000" style="fill:#7E7E7E"/><path d="m200 40h-32c-4.417969 0-8 3.582031-8 8s3.582031 8 8 8h32c4.417969 0 8-3.582031 8-8s-3.582031-8-8-8zm0 0" data-original="#000000" class="" data-old_color="#000000" style="fill:#7E7E7E"/><path d="m248 40h-16c-4.417969 0-8 3.582031-8 8s3.582031 8 8 8h16c4.417969 0 8-3.582031 8-8s-3.582031-8-8-8zm0 0" data-original="#000000" class="" data-old_color="#000000" style="fill:#7E7E7E"/><path d="m192 176c-13.253906 0-24 10.746094-24 24v80c0 13.253906 10.746094 24 24 24h44.238281l37.601563 45.121094c2.160156 2.589844 5.710937 3.550781 8.878906 2.398437 3.167969-1.144531 5.28125-4.152343 5.28125-7.519531v-40c13.253906 0 24-10.746094 24-24v-80c0-13.253906-10.746094-24-24-24zm104 24v80c0 4.417969-3.582031 8-8 8h-8c-4.417969 0-8 3.582031-8 8v25.921875l-25.839844-31.042969c-1.523437-1.828125-3.78125-2.882812-6.160156-2.878906h-48c-4.417969 0-8-3.582031-8-8v-80c0-4.417969 3.582031-8 8-8h96c4.417969 0 8 3.582031 8 8zm0 0" data-original="#000000" class="" data-old_color="#000000" style="fill:#7E7E7E"/><path d="m208 224h24c4.417969 0 8-3.582031 8-8s-3.582031-8-8-8h-24c-4.417969 0-8 3.582031-8 8s3.582031 8 8 8zm0 0" data-original="#000000" class="" data-old_color="#000000" style="fill:#7E7E7E"/><path d="m264 256h-56c-4.417969 0-8 3.582031-8 8s3.582031 8 8 8h56c4.417969 0 8-3.582031 8-8s-3.582031-8-8-8zm0 0" data-original="#000000" class="" data-old_color="#000000" style="fill:#7E7E7E"/><path d="m272 224h-16c-4.417969 0-8 3.582031-8 8s3.582031 8 8 8h16c4.417969 0 8-3.582031 8-8s-3.582031-8-8-8zm0 0" data-original="#000000" class="" data-old_color="#000000" style="fill:#7E7E7E"/></g></g> </svg>
